<?xml version="1.0" encoding="utf-8" ?>	<!-- Generator: Assembly 2.4 - http://assemblyapp.co -->	<svg version="1.1" xmlns="http://www.w3.org/2000/svg" xmlns:xlink="http://www.w3.org/1999/xlink" viewBox="0 0 4096.0 4096.0">		<g id="document" transform="scale(1.0 1.0) translate(2048.0 2048.0)">			<path d="M-6.26768,-1015.57 L68.8341,-1069.41 L14.9855,-1144.52 L-6.26768,-1015.57 Z " fill="#699fc1" fill-opacity="1.00" />			<path d="M16.5974,-1370.79 L80.9824,-1435.17 L16.5974,-1499.56 L16.5974,-1370.79 Z " fill="#699fc1" fill-opacity="1.00" />			<path d="M-10.7958,-673.251 L1651.38,-489.989 L326.396,93.0435 L-10.7958,-673.251 Z " fill="#cde3f1" fill-opacity="1.00" />			<path d="M-1.23175,190.184 L-623.29,549.946 L-1.23176,549.946 L-1.23175,190.184 Z " fill="#9ac7e2" fill-opacity="1.00" />			<path d="M-1.23177,190.184 L620.826,549.946 L-1.23177,549.946 L-1.23177,190.184 Z " fill="#699fc1" fill-opacity="1.00" />			<path d="M-250.764,104.169 L-1646.16,-494.071 L-341.245,-650.519 L-250.764,104.169 Z " fill="#3b93ca" fill-opacity="1.00" />			<path d="M1.59741,-1600.93 L1.59741,27.9546 " fill="none" stroke-width="30.00" stroke="#88adc4" stroke-linecap="square" stroke-linejoin="miter" />			<path d="M-992.5,0.981562 L-1.23176,0.981562 L-1.23176,-990.287 L-992.5,0.981562 Z " fill="#e4f3fb" fill-opacity="1.00" />			<path d="M-15.0694,190.184 C-460.881,190.184 -822.283,361.725 -822.283,573.332 C-822.283,784.938 -460.881,956.479 -15.0694,956.479 C430.742,956.479 792.144,784.938 792.144,573.332 C792.144,361.725 430.742,190.184 -15.0694,190.184 Z " fill="#0c2534" fill-opacity="0.18" />			<path d="M-1.23175,549.946 L-1.23175,-72.1123 L-623.29,-72.1123 L-623.29,549.946 L-1.23175,549.946 Z " fill="#9ac7e2" fill-opacity="1.00" />			<path d="M-1.23178,-990.287 L-1.23173,0.981543 L990.037,0.9815 L-1.23178,-990.287 Z " fill="#3b93ca" fill-opacity="1.00" />			<path d="M1.59746,-53.832 L-1646.16,-494.037 L-602.181,549.946 L1.59746,-53.832 Z " fill="#cde3f1" fill-opacity="1.00" />			<path d="M620.826,549.946 L620.826,-72.1123 L-1.23177,-72.1123 L-1.23177,549.946 L620.826,549.946 Z " fill="#699fc1" fill-opacity="1.00" />			<path d="M1.59741,-53.832 L1649.36,-494.037 L605.375,549.946 L1.59741,-53.832 Z " fill="#4b89b0" fill-opacity="1.00" />			<path d="M558.62,-1431.04 L618.845,-1491.26 C452.625,-1657.48 182.818,-1657.48 16.5974,-1491.26 L76.8222,-1431.04 C209.919,-1564.13 425.523,-1564.13 558.62,-1431.04 Z " fill="#699fc1" fill-opacity="1.00" />			<path d="M610.406,-1499.56 L550.181,-1439.33 C716.402,-1273.11 986.208,-1273.11 1152.43,-1439.33 L1092.2,-1499.56 C959.107,-1366.46 743.503,-1366.46 610.406,-1499.56 Z " fill="#699fc1" fill-opacity="1.00" />			<path d="M1632.82,-1438.14 L1693.04,-1498.37 C1526.82,-1664.59 1257.01,-1664.59 1090.79,-1498.37 L1151.02,-1438.14 C1284.11,-1571.24 1499.72,-1571.24 1632.82,-1438.14 Z " fill="#699fc1" fill-opacity="1.00" />			<path d="M543.852,-997.632 L612.285,-1048.34 C472.342,-1237.21 205.474,-1276.93 16.5974,-1136.98 L67.3015,-1068.55 C218.539,-1180.61 431.796,-1148.87 543.852,-997.632 Z " fill="#699fc1" fill-opacity="1.00" />			<path d="M611.51,-1050.11 L543.937,-998.262 C687.032,-811.762 954.529,-776.534 1141.03,-919.629 L1089.18,-987.202 C939.848,-872.622 726.089,-900.773 611.51,-1050.11 Z " fill="#699fc1" fill-opacity="1.00" />			<path d="M1617.01,-857.187 L1684.08,-909.683 C1539.19,-1094.79 1271.36,-1127.43 1086.25,-982.545 L1138.75,-915.477 C1286.97,-1031.49 1500.99,-1005.41 1617.01,-857.187 Z " fill="#699fc1" fill-opacity="1.00" />			<path d="M1624.79,-864.746 L1705.46,-911.321 L1472.59,-1314.67 L1391.92,-1268.09 L1624.79,-864.746 Z " fill="#699fc1" fill-opacity="1.00" />			<path d="M1680.41,-1485.9 L1628.48,-1537.83 L1368.84,-1278.19 L1420.77,-1226.26 L1680.41,-1485.9 Z " fill="#699fc1" fill-opacity="1.00" />		</g>	</svg>