<svg width="797.0000000000001" height="600" xmlns="http://www.w3.org/2000/svg">
 <defs>
  <filter id="svg_4_blur">
   <feGaussianBlur in="SourceGraphic" stdDeviation="0.2"/>
  </filter>
 </defs>
 <g>
  <title>Layer 1</title>
  <path fill="#9ACEE6" stroke="#000" id="svg_4" d="m150,222.625c0,0 0,0 0,-1c0,-3 0,-6 0,-8c0,-1 0,-3 0,-6c0,-1 1,-3 1,-4c0,-1 1,-2 1,-2c1,0 1,-1 1,-1c0,0 0,0 1,0c0,0 0,0 0,0c0,0 1,0 1,0c1,0 2,0 3,0c2,0 3,0 4,0c2,0 3,0 3,0c1,0 1,0 2,0c0,0 0,0 1,0c0,0 0,0 0,0c0,0 1,0 1,0c0,0 1,0 2,0c0,0 1,0 1,0c1,0 2,0 2,0c1,0 1,0 2,-1c0,0 0,0 0,0c1,0 1,0 1,0c0,0 1,-1 1,-1c0,0 1,-1 2,-2c1,-1 2,-2 3,-3c1,-1 2,-1 3,-2c1,-1 0.69344,-1.4588 2,-2c0.92387,-0.38269 1,0 2,-1c0,0 0.29289,0.70711 1,0c0.70711,-0.70711 1,-1 1,-1c0,0 1,0 1,0c0,0 1,-1 1,-1c0,0 0,0 1,0c0,0 0.29289,-0.70711 1,0c0.70711,0.70711 1.07613,0.61731 2,1c1.30656,0.5412 2,2 2,2c1,0 2,1 2,1c1,0 1,1 1,1c0,0 1,0 1,0c0,0 0,0 1,0c0,0 0,0 1,0c1,0 2,0 3,1c0,0 1,0 2,0c0,0 1,0 2,0c0,0 0,0 1,0c0,0 1,0 2,0c0,0 1,0 1,0c1,0 1,0 2,0c1,0 2,0 2,0c1,0 2,0 3,0c1,0 2,0 2,0c1,0 2,0 3,0c0,0 1,0 2,0c1,0 3,0 4,0c1,0 2,0 3,0c1,0 1.29289,-0.29289 2,-1c0.70711,-0.70711 2,0 3,0c0,0 0.29291,-0.29289 1,-1c0.70709,-0.70711 2,0 2,0c1,0 2,-1 3,-1c1,0 1,0 3,0c1,0 2,-1 4,-1c1,0 2,-1 4,-1c1,0 2,0 4,0c1,0 2,0 3,0c1,0 2,-1 3,-1c1,0 1,0 2,0c1,0 2,0 4,0c1,0 1.69345,-0.4588 3,-1c1.84775,-0.76537 3.15225,0.76537 5,0c1.30655,-0.5412 3.07611,-0.61731 4,-1c1.30655,-0.5412 2,-1 3,-1c1,0 1,0 2,0c0,0 0,0 0,0c1,0 1,0 1,0c0,0 1,0 2,0c1,0 2,0 3,0c1,0 3,0 4,0c2,0 3,0 4,0c2,0 3,0 4,0c0,0 1,0 2,0c1,0 2,0 3,0c0,0 1,0 2,0c1,0 2,0 3,0c0,0 1.07611,-0.38269 2,0c1.30655,0.5412 2,1 3,1c1,0 1,0 2,0c1,0 1,1 2,1c1,0 1,0 1,0c1,1 1,1 1,1c1,0 1,1 1,1c1,0 1.29291,0.29289 2,1c0.70709,0.70711 0.29291,1.29289 1,2c0.70709,0.70711 1,1 2,1c0,0 0,0 1,1c0,0 0,0 1,0c0,0 0,0 0,0c0,0 1,0 2,0c0,0 1.15225,-0.76537 3,0c1.30655,0.5412 2,1 3,1c2,0 4,0 5,0c2,0 3,0 5,0c1,0 2,0 4,0c1,0 3,0 4,0c1,0 2,0 3,0c1,0 2,0 3,0c0,0 1,0 2,0c1,0 2,0 3,0c0,0 1,0 2,0c1,0 2.69345,-0.4588 4,-1c0.92389,-0.38269 2.82376,-0.48625 5,-1c0.97324,-0.22975 3.15225,-0.23463 5,-1c1.30655,-0.5412 2.82376,-1.48625 5,-2c0.97324,-0.22975 3.07611,0.38269 4,0c1.30655,-0.5412 2,-1 3,-1c0,0 1,0 2,0c1,0 2,-1 3,-1c1,0 1,0 3,0c1,0 2,0 4,0c1,0 2,0 4,0c1,0 2,0 2,0c1,0 1,0 1,0c1,0 1,0 1,0c0,0 0,0 1,1c0,0 0,1 1,2c0,0 0.77023,1.02675 1,2c0.51373,2.17625 2,3 2,3c1,1 1.69345,2.4588 3,3c0.92389,0.38269 0.69345,0.4588 2,1c0.92389,0.38269 1,0 2,1c0,0 1,0 1,0c0,0 1,0 1,0c0,0 1,0 2,0c1,0 2,0 4,0c1,0 3,0 4,0c2,0 3,0 4,0c1,0 2,0 3,0c0,0 1,0 2,0c0,0 1,0 2,0c1,0 2,0 2,0c2,0 3,0 4,0c1,0 2,0 4,0c1,0 2,-1 4,-1c2,0 3.07611,0.38269 4,0c1.30655,-0.5412 2,-1 3,-1c1,0 2,0 2,0c1,-1 1,-1 1,-1c1,0 1,0 1,0c0,0 0.07611,0.38269 1,0c1.30655,-0.5412 1.07611,-0.61731 2,-1c1.30655,-0.5412 2,-2 3,-2c1,0 1.69345,-1.4588 3,-2c0.92389,-0.38269 1.69345,-1.4588 3,-2c1.84778,-0.76537 2.69342,-1.4588 4,-2c0.92389,-0.38269 2.18604,-0.69255 4,-2c1.14728,-0.8269 2,-2 3,-3c1,-1 1.69342,-1.4588 3,-2c0.92389,-0.38269 2,-1 3,-1c0,0 1,0 1,0c0,0 1,0 1,0c0,0 0,0 1,0c1,0 2,0 3,0c1,0 2,0 3,0c1,0 2,1 3,1c1,0 1.69342,0.4588 3,1c0.92389,0.38269 2,0 3,1c0,0 1.07611,-0.38269 2,0c1.30658,0.5412 1,1 2,1c1,0 2,1 2,1c1,1 2,1 2,1c1,1 2,1 2,1c1,1 1,1 1,1c1,1 1.29291,0.29289 2,1c0.70709,0.70711 0.29291,1.29289 1,2c0.70709,0.70711 1,0 2,1c0,0 0.29291,0.29289 1,1c0.70709,0.70711 0.29291,1.29289 1,2c0.70709,0.70711 1.4588,0.69344 2,2c0.38269,0.92387 0.61731,1.07613 1,2c0.5412,1.30656 1.61731,1.07613 2,2c0.5412,1.30656 1.29291,1.29289 2,2c0.70709,0.70711 0.61731,2.07613 1,3c0.5412,1.30656 1,1 2,2c1,1 0.69342,2.4588 2,3c0.92389,0.38269 1.29291,1.29289 2,2c0.70709,0.70711 0.29291,0.29289 1,1c0.70709,0.70711 1,0 1,0c1,0 1,1 1,1c0,0 0.69342,0.4588 2,1c0.92389,0.38269 2.69342,1.4588 4,2c1.84778,0.76537 2.82373,1.48625 5,2c0.97327,0.22975 2.69342,1.4588 4,2c0.92389,0.38269 2.07611,0.61731 3,1c1.30658,0.5412 1.69342,1.4588 3,2c0.92389,0.38269 2.07611,0.61731 3,1c1.30658,0.5412 1.69342,1.4588 3,2c0.92389,0.38269 0.69342,0.4588 2,1c0.92389,0.38269 0.69342,0.4588 2,1c0.92389,0.38269 1,0 2,0c0,0 1,1 1,1c0,0 0,0 0,0c1,0 1,0 1,0c1,1 0.69342,1.4588 2,2c0.92389,0.38269 1,1 2,2c1,1 2,2 2,2c1,1 1.29291,1.29289 2,2c0.70709,0.70711 0,1 1,2c0,0 0,1 0,1c0,0 1,1 1,1c0,0 0,1 0,1c0,0 0,0 0,0c0,1 1,1 1,2c0,0 0,1 0,1c1,0 1,1 1,1c0,0 0,1 0,1c0,0 -0.70709,0.29289 0,1c0.70709,0.70711 1,1 1,2c0,0 1,1 1,2c0,1 0,2 1,2c0,0 0,1 0,1c0,0 0,1 0,1c0,0 1,0 1,0c0,1 0,1 0,1c0,1 0,1 0,1c1,0 1,1 1,1c0,0 0,0 0,1c0,0 0,1 1,2c0,0 0,1 0,2c0,0 -0.70709,1.29291 0,2c0.70709,0.70709 1,1 1,1c0,1 0,1 0,2c0,0 0,1 0,1c0,1 0,2 0,2c0,1 0,1 0,1c0,1 0,2 0,2c-1,1 -1,1 -1,2c0,0 -1,1 -1,1c0,0 0.70709,0.29291 0,1c-0.70709,0.70709 -1,0 -1,1c0,0 -1,0 -1,0c0,1 -1,1 -1,1c-1,1 -1,1 -2,2c0,0 -1,1 -1,1c-1,1 -2,1 -2,1c-1,1 -1.29291,1.29291 -2,2c-0.70709,0.70709 -1,1 -2,1c-1,0 -1,1 -2,1c0,0 -1,1 -1,1c-1,1 -2,1 -3,2c0,0 -1.07611,0.61731 -2,1c-1.30658,0.5412 -1.61731,1.07611 -2,2c-0.5412,1.30655 -1.29291,1.29291 -2,2c-0.70709,0.70709 -2,1 -2,1c0,1 -1.29291,0.29291 -2,1c-0.70709,0.70709 0,1 -1,2c0,0 -1,1 -1,1c0,1 -1,1 -1,2c0,0 -1,1 -1,1c-1,1 -1,1 -2,2c0,0 0,1 -1,1c0,0 0,1 -1,1c0,0 0,1 -1,1c0,0 0,1 -1,1c0,0 0,1 -1,1c0,0 0,0 0,0c-1,1 -2,1 -2,1c0,0 -1,0 -1,0c-1,0 -1,0 -2,0c0,0 -1,0 -1,0c-1,0 -1,0 -2,0c-1,0 -1,0 -2,0c0,0 -1,0 -1,0c0,0 -1,0 -1,0c-1,0 -1,0 -2,0c-2,0 -2.69342,-0.4588 -4,-1c-0.92389,-0.38269 -1,0 -2,0c-1,0 -1,-1 -2,-1c0,0 0,0 -1,-1c0,0 -1,0 -1,0c-1,-1 -2,-1 -2,-1c-1,0 -1,-1 -2,-1c0,0 0,0 0,0c-1,0 -1,0 -1,0c0,0 -1,0 -1,0c-1,0 -1,0 -1,0c-1,0 -2,0 -2,0c-1,0 -1,0 -2,0c-1,0 -1.69342,1.4588 -3,2c-0.92389,0.38269 -1.41888,1.41885 -3,3c-1.58112,1.58115 -2,1 -3,2c-1,1 -1,1 -2,2c0,0 -1,0 -1,1c0,0 0,0 -1,1c0,0 0,0 0,0c0,0 -1,1 -1,1c0,0 -1,1 -1,1c-1,1 -1,1 -1,1c-1,1 -1,1 -2,2c0,0 -1,0 -1,0c-1,1 -1,1 -2,1c0,0 -1,1 -2,1c-1,0 -1.29291,-0.70709 -2,0c-0.70709,0.70709 -1,1 -1,1c-1,0 -1,0 -1,0c-1,0 -1,0 -1,0c-1,0 -1,0 -1,0c-1,1 -1,1 -1,1c-1,0 -1,0 -1,0c-1,0 -1,0 -2,0c0,0 -1,1 -1,1c-1,0 -1,0 -2,0c0,0 -1,1 -1,1c-1,0 -1,0 -2,0c-1,0 -1,1 -2,1c-1,0 -1.29291,0.29291 -2,1c-0.70709,0.70709 -1.69342,0.4588 -3,1c-1.84775,0.76538 -2.15225,0.23462 -4,1c-1.30655,0.5412 -1.69345,1.4588 -3,2c-0.92389,0.38269 -1,1 -2,1c-1,0 -2,1 -2,1c0,0 -1,1 -1,1c-1,0 -1,0 -2,0c0,0 -1,1 -1,1c-1,0 -2,0 -2,0c-1,0 -2,0 -3,0c-1,0 -2,0 -3,0c-1,0 -2,1 -3,1c0,0 -1,0 -1,0c-1,0 -2,0 -2,0c-1,0 -1,0 -2,0c-1,0 -1,0 -2,0c-1,0 -2,0 -3,0c-1,0 -2,0 -3,0c-1,0 -2.69345,-0.4588 -4,-1c-1.84775,-0.76538 -3.69345,-0.4588 -5,-1c-1.84775,-0.76538 -5,0 -6,0c-1,0 -2,-1 -4,-1c-1,0 -3.07611,0.38269 -4,0c-1.30655,-0.5412 -3,-1 -5,-1c-3,0 -5,-1 -7,-1c-2,0 -4.87857,-0.49347 -8,-1c-2.96127,-0.48056 -5,0 -7,0c-3,0 -6,0 -8,0c-2,0 -5,0 -7,0c-3,0 -5,0 -7,0c-3,0 -5,0 -7,0c-3,0 -5.0535,0.4595 -7,0c-2.17624,-0.51373 -4,-1 -6,-1c-1,0 -2.69345,-0.4588 -4,-1c-0.92389,-0.38269 -2,0 -3,0c-1,0 -2,-1 -3,-1c-1,0 -2.07611,-0.61731 -3,-1c-1.30655,-0.5412 -2.07611,-0.61731 -3,-1c-1.30655,-0.5412 -2,-1 -3,-1c-1,0 -1,-1 -2,-1c-1,0 -2,0 -2,0c-1,0 -2,0 -2,0c-1,0 -2,0 -2,0c-1,0 -2,0 -3,0c0,0 -0.29291,0.29291 -1,1c-1.41422,1.41422 -2.69345,0.4588 -4,1c-0.92389,0.38269 -2,0 -3,1c0,0 -0.69345,0.4588 -2,1c-0.92389,0.38269 -1.69345,0.4588 -3,1c-0.92389,0.38269 -1.07611,-0.38269 -2,0c-1.30655,0.5412 -2,1 -2,1c-1,1 -1,1 -2,1c-1,0 -0.69345,0.4588 -2,1c-0.92389,0.38269 -2,0 -2,0c-1,0 -2.07611,-0.38269 -3,0c-1.30655,0.5412 -1,1 -2,1c-1,0 -2,0 -3,0c0,0 -1,0 -2,0c-1,0 -1.29291,0.29291 -2,1c-0.70709,0.70709 -1,0 -1,0c-1,0 -1,0 -1,0c0,0 -1,0 -1,0c0,0 -2,0 -4,1c-2,1 -4.93414,1.14429 -7,2c-2.92157,1.21014 -4.90778,1.49622 -9,2c-1.98502,0.24435 -5,0 -7,0c-3,0 -5,0 -7,0c-2,0 -4.15225,0.76538 -6,0c-1.30655,-0.5412 -2,-1 -3,-1c-1,0 -2,0 -3,0c0,0 -1,0 -2,0c-1,0 -1,0 -2,0c-1,0 -1,0 -2,0c-1,0 -2,0 -3,0c-1,0 -2,-1 -3,-1c-2,0 -2,0 -3,0c-2,0 -3,0 -4,0c-1,0 -2,-1 -3,-1c0,0 -1,0 -2,0c-1,0 -2,0 -3,0c-1,0 -2,0 -4,0c-1,0 -3.02675,0.22977 -4,0c-2.17625,-0.51373 -3.07613,-0.61731 -4,-1c-1.30656,-0.5412 -1.29289,-1.29291 -2,-2c-0.70711,-0.70709 -2.29289,-0.29291 -3,-1c-0.70711,-0.70709 -1,-2 -1,-2c-1,-1 -1,-1 -2,-2c0,0 -1,-1 -1,-1c-1,-1 -1,-1 -2,-2c0,0 -0.29289,-0.29291 -1,-1c-0.70711,-0.70709 -1,0 -1,0c-1,-1 -1.29289,-0.29291 -2,-1c-0.70711,-0.70709 0,-1 -1,-1c0,0 0,-1 0,-1c-1,0 -0.29289,-0.29291 -1,-1c-0.70711,-0.70709 -1,-1 -2,-1c0,0 0,-1 -1,-2c0,0 -0.29289,-0.29291 -1,-1c-0.70711,-0.70709 0,-1 -1,-1c0,0 0,-1 0,-1c-1,0 -1,0 -1,0c-1,0 -1,0 -2,0c0,0 -1,0 -2,0c-1,0 -1,0 -2,0c-1,0 -2,0 -3,0c-1,0 -2.15224,0.76538 -4,0c-1.30656,-0.5412 -2.15224,-1.23462 -4,-2c-1.30656,-0.5412 -2.02675,-1.77023 -3,-2c-2.17625,-0.51373 -3.07613,-0.61731 -4,-1c-1.30656,-0.5412 -1,-1 -2,-1c-1,0 -1,-1 -2,-1c0,0 -1,0 -2,0c0,0 -1,0 -1,0c-1,0 -1,0 -2,0c-1,0 -1,0 -2,-1c0,0 -1,0 -2,0c0,0 -1,0 -1,0c0,0 0,-1 -1,-1c0,0 0,0 0,-1c0,0 0,0 0,-1c0,-1 -0.4588,-2.69345 -1,-4c-0.76537,-1.84775 -1,-4 -1,-6c0,-3 -1.49345,-4.87857 -2,-8c-0.16019,-0.98709 -0.48625,-2.82376 -1,-5c-0.4595,-1.9465 0,-3 0,-5c0,-2 0,-3 0,-5c0,-2 -1,-4 -1,-5c0,-2 0,-3 0,-5c0,-1 0,-2 0,-2c0,-1 0,-1 0,-1c0,0 0,0 0,-1c0,0 0,-1 0,-2c0,-1 0,-1 0,-2c0,-1 1,-1 1,-1c0,-1 0,-1 1,-2c0,0 0,-1 0,-1c1,-1 0.29289,-1.29289 1,-2c0.70711,-0.70711 1,-1 1,-1c0,0 -0.70711,-0.29289 0,-1c0.70711,-0.70711 1,0 1,-1c0,-1 0,-1 0,-2c0,-1 0,-2 0,-3c0,0 0,-1 0,-1c0,0 0,-1 0,-1c0,0 0,-1 0,-2c0,0 0,-1 0,-1c0,-1 0,-1 0,-2c0,-1 0,-1 0,-1c0,-1 0,-1 0,-1c0,0 0,-1 0,-1c-1,0 -1,0 -1,-1c0,0 0,0 0,-1c0,0 0,0 -1,-1c0,0 0,0 0,-1c0,0 0,0 0,0c0,0 0,-1 0,-1c0,-1 0,-1 0,-1c0,-1 0,-1 0,-1c0,-1 0,-1 0,-1c0,-1 0,-1 0,-2l0,0l0,0" opacity="0.79" filter="url(#svg_4_blur)"/>
  <path fill="#84D3DB" stroke="#000" opacity="NaN" d="m149.06941,526.38889" id="svg_14"/>
  <path stroke="#000" id="svg_20" d="m150.64286,301.71428l5.96477,4l4.59934,0l9.7736,4.57143l8.62377,4.57143l12.07327,-2.85714l1.72475,8.57143l4.59934,1.14286l13.22311,14.85714l11.49836,0l12.07327,1.71429l17.82245,-5.71429l2.87459,6.85714l11.49836,0.57143l22.42179,-2.28571l15.52278,-5.71429c0.35932,0 18.75669,-1.14286 18.75669,-1.14286c0,0 20.69704,-6.28571 20.33772,-6.28571c0.35932,0 17.60686,4 17.24753,4c0.35932,0 19.90653,8 19.5472,8c0.35932,0 30.82997,0.57143 30.47064,0c0.35932,0.57143 17.60686,-1.14286 17.24753,-1.14286c0.35932,0 22.2062,2.28571 21.84688,2.28571c0.35932,0 18.75669,-0.57143 18.39737,-1.14286c0.35932,0.57143 17.03194,0 16.67262,0c0.35932,0 10.70784,-6.85714 10.34852,-6.85714c0.35932,0 14.15735,-4 13.79803,-4c0.35932,0 10.13293,-2.85714 9.7736,-2.85714c0.35932,0 13.00752,-6.85714 12.64819,-6.85714c0.35932,0 10.13293,-7.42857 9.7736,-7.42857c0.35932,0 13.00752,-4 12.64819,-4c0.35932,0 11.85768,4.57143 11.49836,4c0.35932,0.57143 11.28276,-0.57143 10.92344,-0.57143c0.35932,0 10.70784,-10.85714 10.34852,-11.42857c0.35932,0.57143 11.85768,-6.85714 11.49836,-6.85714c0.35932,0 10.13293,-8.57143 9.7736,-8.57143c0.35932,0 13.00752,-10.85714 12.64819,-10.85714c0.35932,0 0.35932,33.14286 0,33.14286c0.35932,0 -7.11461,4 -7.47393,4c0.35932,0 -2.51527,9.71429 -2.51527,9.71429c0,0 -17.24753,8 -17.60686,7.42857c0.35932,0.57143 -7.68953,13.14286 -8.04885,13.14286c0.35932,0 -7.68953,8.57143 -8.04885,8.57143c0.35932,0 -15.16346,1.71429 -15.52278,1.71429c0.35932,0 -4.81494,-1.14286 -13.4387,2.28571c-8.62377,3.42857 -18.39737,0 -28.17097,7.42857c-9.7736,7.42857 -9.19868,6.28571 -20.69704,7.42857c-11.49836,1.14286 -4.02442,6.85714 -29.32081,1.14286c-25.29638,-5.71429 -5.17426,-10.28571 -28.74589,-5.71429c-23.57163,4.57143 -22.99671,10.28571 -36.21982,10.28571c-13.22311,0 -17.24753,4.57143 -29.89573,0c-12.64819,-4.57143 -17.82245,-4.57143 -28.17097,-7.42857c-10.34852,-2.85714 -6.89901,-9.14286 -22.42179,-5.71429c-15.52278,3.42857 -28.74589,12 -39.09441,11.42857c-10.34852,-0.57143 -20.12212,2.85714 -31.04556,2.85714c-10.92344,0 -24.72147,2.85714 -34.49507,-0.57143c-9.7736,-3.42857 -17.24753,-4.57143 -26.44622,-9.14286c-9.19868,-4.57143 -7.47393,-9.14286 -16.0977,-9.14286c-8.62377,0 -19.5472,2.28571 -22.99671,-1.71429c-3.44951,-4 -4.02442,-49.71429 -4.02442,-49.71429z" opacity="NaN" fill="#6D97AB"/>
  <path stroke="#ffffff" id="svg_21" d="m469.7383,254.28285l41.66827,-38.17262c0.19823,0 10.66486,-0.68165 10.66486,-0.68165c0,0 -41.54933,34.42352 -41.74756,34.0827c0.19823,0.34083 -160.29002,121.3344 -10.58556,4.77158z" opacity="0.67" fill="#ffffff"/>
  <path stroke="#ffffff" id="svg_23" d="m520.40883,244.93406l29.98741,-28.42644c0.14267,0 7.67518,-0.50762 7.67518,-0.50762c0,0 -29.90182,25.63455 -30.04448,25.38075c0.14266,0.2538 -115.35596,90.35546 -7.61811,3.55331z" opacity="0.67" fill="#ffffff"/>
 </g>
</svg>