<svg width="797" height="600" xmlns="http://www.w3.org/2000/svg">
 <g id="Layer_1">
  <title>Layer 1</title>
  <path id="svg_1" d="m172.26471,244.11765c9,-15 39,-27 45,-27c6,0 53,0 52.5,0c0.5,0 16.5,15 16,15c0.5,0 6.5,-10 6,-10c0.5,0 47.5,-17 58.5,-16c11,1 77,2 76.5,2c0.5,0 43.5,2 50.5,15c7,13 37,17 36.5,17c0.5,0 30.5,-13 30,-13c0.5,0 30.5,25 30,25c0.5,0 24.5,50 24,50c0.5,0 -38.5,22 -39,22c0.5,0 -90.5,14 -91,14c0.5,0 -18.5,-28 -19,-28c0.5,0 -6.5,27 -7,27c0.5,0 -69.5,7 -70,7c0.5,0 -67.5,-3 -68,-3c0.5,0 -82.5,7 -83,7c0.5,0 -30.5,15 -31,15c0.5,0 -32.5,-62 -33,-62c0.5,0 6.5,-42 15.5,-57z" opacity="NaN" stroke="#0E353B" fill="#9ACEE6"/>
  <path transform="rotate(6.47234 373.954 333.743)" stroke="#0E353B" id="svg_2" d="m154.65765,326.21643l25.14606,33.56583l27.71561,-20.35788l39.59372,-10.6215l29.69529,-0.88513l42.56325,-6.19588l33.65467,3.5405c0.49492,0 78.69253,-13.27688 78.69253,-12.39175c0,0.88513 13.8578,-23.01325 13.36288,-23.01325c0.49492,0 14.35273,23.01325 13.8578,23.01325c0.49492,0 70.77378,-9.73638 70.27886,-9.73638c0.49492,0 64.14681,-26.0026 63.65189,-26.0026c1.47376,-0.82608 -1.78669,48.13073 -2.28161,48.13073c0.49492,0 -28.21053,22.12813 -28.70545,22.12813c0.49492,0 -47.01755,13.27688 -47.51247,13.27688c0.49492,0 -43.05818,1.77025 -43.5531,1.77025c0.49492,0 -7.42382,-7.081 -7.91874,-7.081c0.49492,0 -11.3832,11.50663 -11.87812,11.50663c0.49492,0 -26.23084,4.42563 -26.72576,4.42563c0.49492,0 -33.15974,0.88513 -33.65467,0.88513c0.49492,0 -17.32225,-6.19588 -17.81718,-6.19588c0.49492,0 -24.25116,11.50663 -24.74608,11.50663c0.49492,0 -57.90582,10.6215 -58.40074,10.6215c0.49492,0 -41.07849,0 -41.57341,0c0.49492,0 -49.98708,1.77025 -50.482,1.77025c0.49492,0 -14.35273,2.65538 -27.22069,-4.42563l-15.74255,-59.23446z" opacity="NaN" fill="#6D97AB"/>
  <path id="svg_3" d="m337.38234,342.94118" opacity="NaN" stroke="#0E353B" fill="#6D97AB"/>
 </g>
</svg>