<svg width="870" height="878" viewBox="0 0 870 878" fill="none" xmlns="http://www.w3.org/2000/svg">
<g id="Group 1">
<path id="piece-1" d="M3.6036 145.552V4.55155V0.551547L169.604 0.0515518L174.604 17.0516L175.104 45.0516L174.604 48.0515L173.604 51.0515L170.604 54.5515L167.604 55.0515H164.104L161.104 53.5515C156.604 49.8849 147.304 45.8515 140.104 49.0515C131.104 53.0515 127.604 59.5516 127.604 71.5516C127.604 83.5516 129.465 92.5468 138.604 98.6902C143.604 102.052 150.604 97.0516 154.104 94.6902C158.568 91.6784 165.604 88.0516 170.604 92.0516C175.604 96.0516 176.604 102.052 177.104 114.052C177.504 123.652 172.937 139.052 170.604 145.552C165.104 144.052 149.804 141.052 132.604 141.052C111.104 141.052 112.104 146.052 108.604 153.052C105.104 160.052 120.104 171.552 112.104 179.052C104.104 186.552 89.1036 188.052 72.1036 185.052C55.1036 182.052 57.6036 166.052 66.6036 156.052C67.1036 154.718 68.1036 151.552 68.1036 149.552C68.1036 147.052 66.6036 145.552 64.6036 143.552C63.0036 141.952 60.6036 141.552 59.6036 141.552C59.6036 141.552 27.1036 142.552 24.1036 142.552L3.6036 145.552Z" fill="#2DFF1E"/>
<path id="piece-2" d="M201.604 155.052C193.604 154.652 177.104 149.218 170.604 147.552L171.104 144.052C172.104 139.385 173.904 131.152 175.104 127.552C176.604 123.052 179.104 103.052 173.604 96.0516C168.104 89.0516 163.604 90.0516 158.604 92.5516C144.104 104.052 139.104 99.0516 136.604 97.0516C134.104 95.0516 127.604 92.0516 127.104 73.5516C126.604 55.0516 135.604 51.5516 136.604 50.5516C136.851 50.3039 141.604 47.5516 144.104 47.5516C146.604 47.5516 150.604 47.5516 152.604 48.5516C154.604 49.5516 160.604 53.5516 163.104 54.0516C165.604 54.5516 170.604 55.0516 172.104 53.0516C173.604 51.0516 174.604 48.5516 174.604 46.5516V40.0516V18.0516L169.604 0.0515518L349.604 0.551552C348.27 5.21822 347.204 19.2516 345.604 24.0516C343.604 30.0516 342.104 51.5516 345.604 55.5516C349.104 59.5516 350.104 58.0516 353.604 58.0516C357.104 58.0516 358.104 56.5516 362.104 53.5516C366.104 50.5516 371.604 50.5516 373.604 50.5516C375.604 50.5516 381.604 54.0516 385.604 59.0516C389.604 64.0516 387.104 88.5516 384.104 94.5516C381.104 100.552 372.604 102.052 368.104 101.552C363.604 101.052 356.604 95.0516 352.604 94.5516C348.604 94.0516 345.604 96.0516 343.604 97.5516C341.604 99.0516 341.104 108.552 341.104 115.052C341.104 120.252 344.104 138.552 345.604 147.052C333.27 149.552 306.904 154.652 300.104 155.052C291.604 155.552 279.104 152.552 277.604 150.052C276.104 147.552 277.604 144.552 277.604 142.052C277.604 139.552 281.604 134.052 283.104 131.552C284.604 129.052 284.604 117.552 278.604 114.052C272.604 110.552 263.882 108.615 260.382 108.615C256.882 108.615 250.382 108.115 245.382 110.615C240.382 113.115 236.104 115.052 233.104 124.552C230.104 134.052 245.604 144.552 236.604 152.552C231.048 157.49 211.604 155.552 201.604 155.052Z" fill="#FB0B0B"/>
<path id="piece-3" d="M520.104 0.051551L348.587 2.5494L346.571 7.62244C345.932 11.051 344.698 19.5891 343.921 22.3341C343.144 25.0792 343.305 27.9676 342.996 30.9044C342.686 33.6782 342.172 40.0073 342.598 43.1336C343.024 46.2598 345.05 53.6166 346.571 56.0516C348.091 58.4866 354.284 58.346 359.104 54.0516C361.373 52.0295 359.609 54.9094 368.604 49.0516C372.914 46.2445 380.587 51.486 383.104 56.0516C385.62 60.6172 388.137 60.0457 387.604 68.0516C387.104 75.5516 388.097 77.0516 387.604 82.0516C387.258 85.5516 387.104 85.0516 386.104 90.2889C384.567 98.3363 382.604 99.0516 378.604 101.052C369.104 107.052 364.094 97.645 355.094 95.645C347.224 93.896 342.931 96.4494 341.604 103.552C340.556 109.159 343.324 133.545 346.104 147.052C354.92 145.022 368.72 143.127 383.104 141.052C401.083 138.457 420.101 141.42 413.604 150.552C406.722 164.791 405.567 175.18 409.104 179.552C412.64 183.923 429.068 188.242 441.604 186.052C452.942 184.07 466.673 175.319 461.104 167.052C455.535 158.784 452.136 148.042 458.104 144.08C464.071 140.118 476.1 140.171 489.104 140.552C499.507 140.856 513.761 145.967 520.604 147.052L527.104 115.052C526.707 107.393 530.301 97.5195 514.6 91.0516C506.104 87.5516 506.604 106.052 485.104 97.5516C479.874 95.4841 476.718 77.756 478.104 64.0515C479.49 50.3471 487.406 47.0516 497.604 47.0516C509.604 47.0516 507.588 53.1428 514.6 54.5516C521.612 55.9603 525.165 50.3866 525.104 43.0515C525.043 35.7165 525.165 31.3866 525.104 24.0516C525.055 18.1835 521.604 4.05155 520.104 0.051551Z" fill="#4B488B"/>
<path id="piece-4" d="M552.124 155.052C544.124 154.652 527.624 149.218 521.124 147.552L521.624 144.052C522.624 139.385 524.424 131.152 525.624 127.552C527.124 123.052 529.624 103.052 524.124 96.0516C518.624 89.0516 514.124 90.0516 509.124 92.5516C494.624 104.052 489.624 99.0516 487.124 97.0516C484.624 95.0516 478.124 92.0516 477.624 73.5516C477.124 55.0516 486.124 51.5516 487.124 50.5516C487.371 50.3039 492.124 47.5516 494.624 47.5516C497.124 47.5516 501.124 47.5516 503.124 48.5516C505.124 49.5516 511.124 53.5516 513.624 54.0516C516.124 54.5516 521.124 55.0516 522.624 53.0516C524.124 51.0516 525.124 48.5516 525.124 46.5516V40.0516V18.0516L520.124 0.0515518L700.124 0.551552C698.79 5.21822 697.724 19.2516 696.124 24.0516C694.124 30.0516 692.624 51.5516 696.124 55.5516C699.624 59.5516 700.624 58.0516 704.124 58.0516C707.624 58.0516 708.624 56.5516 712.624 53.5516C716.624 50.5516 722.124 50.5516 724.124 50.5516C726.124 50.5516 732.124 54.0516 736.124 59.0516C740.124 64.0516 737.624 88.5516 734.624 94.5516C731.624 100.552 723.124 102.052 718.624 101.552C714.124 101.052 707.124 95.0516 703.124 94.5516C699.124 94.0516 696.124 96.0516 694.124 97.5516C692.124 99.0516 691.624 108.552 691.624 115.052C691.624 120.252 694.624 138.552 696.124 147.052C683.79 149.552 657.424 154.652 650.624 155.052C642.124 155.552 629.624 152.552 628.124 150.052C626.624 147.552 628.124 144.552 628.124 142.052C628.124 139.552 632.124 134.052 633.624 131.552C635.124 129.052 635.124 117.552 629.124 114.052C623.124 110.552 614.402 108.615 610.902 108.615C607.402 108.615 600.902 108.115 595.902 110.615C590.902 113.115 586.624 115.052 583.624 124.552C580.624 134.052 596.124 144.552 587.124 152.552C581.568 157.49 562.124 155.552 552.124 155.052Z" fill="#FBFB0B"/>
<path id="piece-5" d="M694.604 51.0516C692.604 39.5516 694.604 33.5516 694.604 29.5516C694.604 26.4142 698.769 9.56364 700.974 1.05155H865.604V147.052C862.77 147.052 852.204 146.152 832.604 142.552C808.104 138.052 795.604 145.552 798.104 152.052C811.604 174.052 804.604 187.552 777.604 187.552C750.604 187.552 749.104 174.052 750.604 164.552C752.104 155.052 764.604 155.552 759.104 147.052C753.604 138.552 740.104 141.052 731.604 141.052C724.804 141.052 705.104 145.052 696.104 147.052C694.604 140.385 691.604 124.352 691.604 113.552C691.604 100.052 694.604 97.0516 697.104 95.5516C699.604 94.0516 702.104 94.5516 705.104 95.5516C708.104 96.5516 711.604 101.052 719.104 102.052C726.604 103.052 731.604 98.5516 734.604 95.5516C737.604 92.5516 741.604 79.5516 738.604 65.0516C735.604 50.5516 721.604 48.5516 719.104 49.0516C717.104 49.4516 710.27 54.5516 707.104 57.0516C703.604 58.8849 696.204 60.2516 694.604 51.0516Z" fill="#FF00AE"/>
<path id="piece-6" d="M0.1036 291.552L1.1036 146.551L8.91817 145.076C31.7327 140.639 23.7896 141.513 49.1036 141.513C66.4989 141.513 71.1036 148.218 67.6036 153.052L59.6036 171.051C60.6036 177.385 69.1036 188.152 91.1036 186.552C118.604 184.552 115.198 170.584 111.604 165.552C109.104 162.052 108.104 158.052 108.104 155.051C109.104 151.052 109.404 146.852 114.604 144.052C119.804 141.252 129.604 141.052 129.604 141.052C144.104 140.552 162.937 143.552 170.604 145.552C170.604 148.052 172.004 157.144 167.604 170.744C162.104 195.244 171.604 205.244 178.604 201.744C204.104 187.052 210.104 203.052 213.104 209.552C216.104 216.052 215.604 232.051 207.104 242.551C198.604 253.051 186.604 240.052 177.604 239.052C168.604 238.052 167.104 248.052 167.104 252.552C167.104 255.776 168.604 278.885 171.104 290.552C167.104 292.992 167.504 293.352 141.104 296.552C108.104 300.552 106.104 295.052 105.104 290.552C104.104 286.052 113.104 279.052 113.104 271.052C113.104 263.052 107.104 253.052 87.6036 254.052C72.0036 254.852 68.2703 257.552 65.6036 260.552L62.1036 265.552L61.6036 270.552L62.6036 276.052C67.6036 280.052 74.2036 292.052 64.6036 298.052C55.0036 304.052 16.1036 296.552 0.1036 291.552Z" fill="#FF7F0E"/>
<path id="piece-7" d="M166.604 167.552C167.841 161.777 170.77 151.718 170.604 147.052L204.104 155.052C215.604 156.218 237.404 156.852 238.604 150.052C240.104 141.552 232.232 132.519 231.604 126.552C230.604 117.052 244.698 110.141 250.104 108.552C258.604 106.052 276.604 109.552 278.104 112.052C279.604 114.552 290.604 120.552 282.104 134.052C272.929 148.623 277.299 148.798 280.604 151.552C283.604 154.052 295.604 155.052 304.604 154.052C313.35 153.08 335.604 148.718 345.604 146.552C348.437 150.885 353.804 166.952 352.604 188.552C351.104 215.552 329.104 199.552 320.604 197.552C303.604 195.552 303.604 225.052 303.604 229.052C303.604 233.052 308.604 253.552 326.104 245.552C343.604 237.552 347.604 240.052 350.604 242.552C353.604 245.052 350.104 279.052 346.604 291.552C341.104 288.052 291.604 283.052 285.104 287.552C278.604 292.052 279.604 295.052 288.604 310.552C286.604 326.552 274.104 330.552 268.104 330.552H259.604C255.104 330.552 232.104 326.052 231.104 318.052C230.104 310.052 236.604 304.552 237.604 302.052C238.604 299.552 242.944 293.052 238.444 288.552C233.944 284.052 204.944 284.552 195.944 287.052C188.744 289.052 175.937 290.385 171.104 291.052C169.604 286.385 166.704 272.252 167.104 257.052C167.604 238.052 172.104 239.052 175.604 238.052C179.104 237.052 189.524 244.052 199.024 245.552C208.524 247.052 212.914 235.552 215.414 222.052C213.414 194.552 199.414 195.552 193.914 195.552C189.514 195.552 182.27 199.885 179.104 202.052C176.604 202.885 170.004 203.152 167.604 197.552C164.604 190.552 165.104 174.552 166.604 167.552Z" fill="#72FFDC"/>
<path id="piece-8" d="M494.352 141.724C501.127 142.629 514.104 145.552 520.104 148.052L517.604 161.052L515.914 172.552C514.723 182.124 511.615 195.118 518.604 199.052C531.793 206.475 536.332 195.465 543.304 194.816C554.404 193.784 562.701 205.338 564.643 209.792C567.696 216.796 563.006 240.753 560.104 242.052C557.201 243.35 549.604 253.704 535.604 244.204C520.15 233.717 518.854 245.052 518.604 246.052C516.604 254.052 515.298 259.601 516.604 267.052C517.873 274.292 518.418 283.795 521.104 292.052C516.076 294.496 496.907 300.464 471.617 299.927C440.004 299.256 458.392 278.43 460.604 271.33C462.687 257.174 432.784 254.63 428.104 254.715C423.424 254.801 399.514 261.609 409.138 275.968C418.65 290.159 412.173 295.874 409.24 298.461L409.138 298.552C406.259 301.095 359.281 293.691 344.604 291.052C348.616 286.411 356.142 244.258 349.104 241.552C342.604 239.052 344.103 238.75 326.104 246.551C308.324 250.551 307.104 238.551 304.653 234.549C304.633 233.442 303.707 223.54 303.653 220.551C303.585 216.816 307.759 198.552 317.104 197.552C326.449 196.551 335.119 202.755 338.059 203.532C340.999 204.309 342.907 205.883 348.104 202.052C353.301 198.22 352.604 178.326 352.604 170.3C352.604 163.552 347.457 151.55 346.604 147.552C352.041 146.207 371.398 143.279 389.104 141.552C409.604 139.552 416.205 143.907 414.104 150.052C413.09 153.016 408.715 163.633 407.104 171.552C405.492 179.471 413.771 185.263 429.604 187.052C461.604 187.052 462.187 173.118 462.104 168.552C462.037 164.899 460.104 164.663 456.604 157.552C455.591 155.494 453.588 145.163 460.104 143.052C468.248 140.412 486.139 140.628 494.352 141.724Z" fill="#FFAA72"/>
<path id="piece-9" d="M514.796 167.912C516.034 162.137 518.963 152.078 518.796 147.412L552.296 155.412C563.796 156.578 585.596 157.212 586.796 150.412C588.296 141.912 580.424 132.879 579.796 126.912C578.796 117.412 592.891 110.501 598.296 108.912C606.796 106.412 624.796 109.912 626.296 112.412C627.796 114.912 638.796 120.912 630.296 134.412C621.122 148.983 625.492 149.158 628.796 151.912C631.796 154.412 643.796 155.412 652.796 154.412C661.543 153.44 683.796 149.078 693.796 146.912C696.63 151.245 701.996 167.312 700.796 188.912C699.296 215.912 677.296 199.912 668.796 197.912C651.796 195.912 651.796 225.412 651.796 229.412C651.796 233.412 656.796 253.912 674.296 245.912C691.796 237.912 695.796 240.412 698.796 242.912C701.796 245.412 698.296 279.412 694.796 291.912C689.296 288.412 639.796 283.412 633.296 287.912C626.796 292.412 627.796 295.412 636.796 310.912C634.796 326.912 622.296 330.912 616.296 330.912H607.796C603.296 330.912 580.296 326.412 579.296 318.412C578.296 310.412 584.796 304.912 585.796 302.412C586.796 299.912 591.137 293.412 586.637 288.912C582.137 284.412 553.137 284.912 544.137 287.412C536.937 289.412 524.13 290.745 519.296 291.412C517.796 286.745 514.896 272.612 515.296 257.412C515.796 238.412 520.296 239.412 523.796 238.412C527.296 237.412 537.717 244.412 547.217 245.912C556.717 247.412 561.107 235.912 563.607 222.412C561.607 194.912 547.607 195.912 542.107 195.912C537.707 195.912 530.463 200.245 527.296 202.412C524.796 203.245 518.196 203.512 515.796 197.912C512.796 190.912 513.296 174.912 514.796 167.912Z" fill="#728CFF"/>
<path id="piece-10" d="M865.323 148.775L865.202 293.779L857.396 295.302C834.609 299.877 842.547 298.955 817.233 299.108C799.838 299.214 795.193 292.536 798.664 287.682L806.554 269.634C805.516 263.306 796.951 252.591 774.961 254.324C747.474 256.491 750.963 270.437 754.589 275.448C757.11 278.933 758.134 282.927 758.152 285.927C757.177 289.933 756.902 294.135 751.719 296.966C746.536 299.798 736.737 300.057 736.737 300.057C722.441 300.637 702.832 295.646 694.929 293.634L694.604 293.552C694.588 291.052 697.604 284.552 698.558 270.596C703.91 246.063 694.349 238.509 687.371 242.052C661.96 256.898 655.863 240.935 652.824 234.453C649.785 227.971 650.188 209.58 658.624 199.028C667.06 188.477 679.139 201.404 688.145 202.349C697.151 203.295 698.59 193.286 698.563 188.786C698.543 185.561 697.674 159.203 695.104 147.552C698.563 146.552 698.223 144.411 724.604 141.052C757.579 136.852 759.304 145.917 760.331 150.411C761.359 154.905 752.401 161.959 752.45 169.959C752.498 177.959 758.559 187.923 778.052 186.805C793.647 185.91 797.364 183.187 800.012 180.171L803.482 175.15L803.952 170.147L802.918 164.653C797.894 160.684 791.222 148.724 800.785 142.666C810.349 136.608 849.293 143.872 865.323 148.775Z" fill="#6A0EFF"/>
<path id="piece-11" d="M179.436 416.403C178.948 423.311 174.546 438.445 172.604 444.052L166.604 441.413C161.231 440.528 151.806 440.217 147.662 439.164C142.483 437.848 118.187 432.834 110.104 437.552C102.02 442.27 109.527 448.722 112.39 453.052C115.104 465.57 114.703 470.125 112.39 472.275C110.078 474.425 106.599 480.025 85.2833 480.372C63.9676 480.719 59.9663 472.93 58.8176 472.061C58.5331 471.846 55.3785 467.729 55.3871 465.57C55.3958 463.411 55.4095 459.956 56.5685 458.234C57.7275 456.511 62.3566 451.347 62.9413 449.19C63.5259 447.033 64.1192 442.717 61.8202 441.413C59.5211 440.108 56.6443 439.233 54.3401 439.224L46.8514 439.194L21.5052 439.093L0.750063 443.328L0.750077 291.998C6.12197 293.171 28.079 298.148 33.6036 299.552C40.5093 301.306 61.4831 300.556 66.1036 297.552C70.7241 294.547 68.1939 287.703 68.2059 284.68C68.218 281.657 67.5461 280.02 64.1036 276.552C60.6611 273.083 59.6272 269.099 59.6341 267.372C59.6409 265.645 62.4316 260.479 68.2059 257.047C73.9802 253.615 94.0213 252.469 101.104 254.552C118.104 259.552 113.924 274.881 111.604 278.052C106.751 284.68 107.341 282.599 106.751 286.052C106.161 289.504 102.889 292.291 109.465 295.738C111.629 296.872 122.13 297.947 129.618 297.977C135.609 298.001 160.918 293.255 170.716 291.998C173.553 302.662 179.338 325.457 179.776 331.332C180.322 338.675 177.989 344.622 175.104 345.906C172.218 347.19 167.984 348.563 165.104 348.552C162.223 348.54 155.518 347.213 152.643 345.906C149.768 344.599 140.114 343.391 134.104 351.052C130.051 356.217 129.63 364.029 129.618 367.052C129.606 370.074 129.602 378.722 132.465 383.052C135.328 387.381 133.169 389.417 144.104 392.052C155.038 394.686 163.418 379.242 172.604 387.052C178.274 391.872 180.047 407.769 179.436 416.403Z" fill="#FFF780"/>
<path id="piece-12" d="M199.803 446.118C193.02 445.276 179.126 446.924 173.104 444.479L176.409 431.552L179.104 418.998C180.208 409.415 180.128 391.922 173.104 388.052C159.847 380.749 155.835 394.763 148.869 395.475C137.779 396.609 132.086 385.987 130.104 381.552C126.986 374.576 130.248 347.72 133.139 346.395C136.029 345.07 143.532 334.648 157.618 344.02C173.167 354.365 174.36 343.019 174.601 342.017C176.527 333.999 177.783 328.438 176.409 320.999C175.074 313.771 172.865 299.783 170.104 291.552C175.108 289.061 198.81 284.746 224.104 285.052C255.721 285.434 234.514 309.091 232.368 316.21C230.413 330.385 257.925 330.179 262.604 330.052C267.283 329.924 293.543 325.373 283.788 311.103C274.087 296.911 282.137 289.67 285.035 287.063L285.082 287.02C287.939 284.45 332.604 287.02 345.495 291.552C341.525 296.229 340.429 345.909 347.492 348.552C354.014 350.992 351.176 352.017 369.104 344.052C386.846 339.89 386.16 347.587 388.647 351.567C388.678 352.674 390.022 366.563 390.104 369.552C390.206 373.287 385.939 392.966 376.604 394.052C367.268 395.137 360.551 389.302 357.604 388.552C354.657 387.801 352.654 384.673 347.492 388.552C342.33 392.431 341.211 408.225 341.284 416.25C341.346 422.999 345.214 436.561 346.104 440.552C340.679 441.946 322.738 443.442 305.048 445.331C284.567 447.518 275.059 442.716 277.104 436.552C278.09 433.578 283.705 425.279 285.244 417.346C286.783 409.412 278.452 403.695 262.604 402.052C230.605 402.343 231.68 414.433 231.805 418.998C231.905 422.65 233.84 422.868 237.405 429.947C238.437 431.996 240.534 442.308 234.038 444.479C225.917 447.192 208.025 447.14 199.803 446.118Z" fill="#336300"/>
<path id="piece-13" d="M340.604 313.052C341.839 307.247 344.141 296.661 343.975 291.97L380.604 296.996C392.081 298.169 411.906 300.886 413.104 294.052C414.601 285.508 406.23 277.866 405.604 271.868C404.606 262.32 418.673 255.374 424.068 253.776C432.551 251.263 452.762 254.781 454.259 257.294C455.756 259.807 466.735 265.837 458.252 279.406C449.095 294.052 456.806 294.228 460.104 296.996C463.098 299.509 471.725 300.514 480.708 299.509C489.437 298.532 511.647 294.148 521.628 291.97C524.456 296.326 529.812 312.475 528.614 334.185C527.117 361.323 505.16 345.242 496.677 343.231C479.71 341.221 479.71 370.872 479.71 374.892C479.71 378.913 484.7 399.518 502.166 391.477C519.632 383.436 522.609 388.964 525.604 391.477C528.598 393.99 524.097 428.988 520.604 441.552C515.114 438.034 464.591 433.029 458.104 437.552C451.616 442.075 452.263 445.972 461.246 461.552C459.25 477.633 451.104 477.552 444.604 479.116C438.104 479.552 437.641 479.116 434.048 479.116C429.557 479.116 406.602 474.592 405.604 466.552C404.606 458.511 412.84 450.779 413.838 448.266C414.836 445.753 415.095 442.235 410.604 437.712C406.112 433.189 379.216 433.539 370.234 436.052C363.048 438.062 349.42 439.555 344.596 440.225C343.099 435.535 340.204 421.329 340.604 406.052C341.1 387.061 348.384 384.967 351.9 383.955L351.959 383.938C355.452 382.933 365.852 389.969 375.334 391.477C384.815 392.984 389.197 381.426 391.692 367.857C389.696 340.216 375.723 345.052 370.234 345.052C365.842 345.052 358.613 349.407 355.452 351.585C352.957 352.422 346.37 348.86 343.975 343.231C340.98 336.195 338.587 322.528 340.604 313.052Z" fill="#001C99"/>
<path id="piece-14" d="M670.176 288.552C676.906 289.539 688.297 290.552 695.104 292.052L688.297 321.834C687.076 331.871 684.166 349.217 692.087 350.155C701.988 351.328 710.731 343.903 717.662 343.262C728.697 342.241 736.898 354.411 738.811 359.095C741.818 366.46 737.987 384.156 735.097 385.502C732.208 386.848 725.361 396.525 709.563 389.333C692.511 381.569 692.398 388.303 689.235 391.224C686.364 393.877 685.303 401.423 686.571 409.248C687.804 416.851 692.466 431.874 695.104 440.552C690.098 443.088 669.235 448.757 644.104 448.052C612.69 447.169 632.812 432.552 635.104 416.547C637.229 401.707 602.859 400.731 599.104 401.552C592.859 402.916 570.919 410.933 580.427 426.052C589.936 441.171 583.299 443.399 580.427 446.052C577.556 448.704 534.68 444.904 520.104 442.052C524.109 437.205 531.913 397.269 526.603 391.678C521.294 386.086 517.521 385.968 499.603 394.052C480.975 392.561 481.989 385.7 480.103 380.052C478.1 374.052 480.156 367.972 480.103 364.052C480.05 360.131 483.813 344.259 493.103 343.262C502.394 342.265 507.684 349.323 510.603 350.155L510.629 350.162C513.554 350.996 518.939 352.531 524.103 348.552C529.283 344.561 530.315 322.76 527.302 314.959C524.891 308.718 523.002 296.846 522.17 292.646C527.579 291.266 545.424 285.942 563.104 286.052C585.203 286.188 583.932 286.833 588.604 292.052C590.78 294.483 580.236 307.752 578.604 316.052C576.971 324.351 592.496 330.656 608.223 332.621C640.177 330.446 636.242 315.843 636.178 311.052C636.126 307.219 630.948 299.052 629.103 295.052C628.105 292.887 631.62 290.73 638.104 288.552C646.208 285.828 659.189 286.94 670.176 288.552Z" fill="#FF8BFF"/>
<path id="piece-15" d="M687.482 321.552C687.823 314.635 693.281 298.645 695.104 292.999L700.599 295.027C705.989 295.798 711.939 296.925 716.104 297.889C721.31 299.095 744.622 301.441 752.604 296.552C760.585 291.662 759.104 283.552 756.604 280.052C751.104 272.352 751.388 269.483 754.104 264.052C755.516 261.227 756.3 255.353 777.604 254.552C798.907 253.75 802.937 263.208 804.104 264.052C805.271 264.895 806.066 267.893 806.104 270.052C806.141 272.21 802.564 278.623 801.796 280.552C799.604 286.052 798.48 289.436 797.941 291.605C797.403 293.773 799.777 295.796 802.104 297.052C804.43 298.307 810.3 299.592 812.604 299.552C814.447 299.52 828.876 299.582 830.604 299.552L851.604 297.052L865.104 293.552L866.604 442.052C861.208 440.993 839.657 436.837 834.104 435.552C827.162 433.944 804.604 432.996 800.604 436.552C796.104 440.552 797.051 445.029 797.104 448.052C797.156 451.074 800.088 456.157 803.604 459.552C805.595 461.474 805.209 469.725 804.104 471.052C801.604 474.052 800.817 476.393 795.117 479.948C789.417 483.502 772.729 483.483 765.604 481.552C748.501 476.915 753.544 460.398 755.604 457.052C759.604 450.552 757.856 452.775 759.524 449.007C760.941 445.804 763.505 442.645 758.104 437.552C755.104 434.723 746.592 432.552 739.104 432.552C732.552 432.552 705.873 438.586 696.104 440.052C691.604 430.052 686.86 411.436 686.298 405.572C685.594 398.241 687.8 389.388 690.657 388.043C693.515 386.697 697.719 385.235 700.599 385.185C703.479 385.135 709.201 389.327 712.104 390.572C715.006 391.817 724.693 395.35 730.538 387.563C734.48 382.312 738.921 374.973 738.869 371.951L738.868 371.875C738.813 368.737 738.612 357.087 735.681 352.854C732.726 348.586 731.654 346.505 720.666 344.104C709.677 341.704 700.008 357.324 690.657 349.712C684.886 345.013 687.056 330.197 687.482 321.552Z" fill="#8F2E30"/>
<path id="piece-16" d="M1.439 589.069V444.052L16.6036 441.052C39.6036 438.742 16.6036 441.052 44.1036 438.742C61.4644 437.284 66.5387 445.575 63.0333 450.552L55.5553 464.998C56.5568 471.519 65.0699 482.605 87.1036 480.957C114.646 478.898 115.604 470.052 114.612 461.552C114.104 457.193 111.405 451.033 109.605 448.523C104.604 441.552 106.094 439.906 112.604 436.552C117.895 433.825 135.104 437.052 135.104 437.052C150.104 439.052 164.925 440.992 172.604 443.052C172.604 445.626 173.603 450.678 169.196 464.681C163.687 489.907 173.202 500.204 180.213 496.6C205.752 481.472 211.761 497.946 214.766 504.639C217.77 511.331 217.269 527.806 208.756 538.617C200.243 549.428 188.225 536.043 179.211 535.013C170.197 533.984 168.695 544.28 168.695 548.913C168.695 552.234 170.197 576.027 172.701 588.04C168.695 590.552 169.096 590.923 142.655 594.217C109.605 598.336 107.602 592.673 106.6 588.04C105.598 583.406 114.612 576.199 114.612 567.962C114.612 559.725 108.603 549.428 89.0732 550.458C73.4493 551.282 69.7102 554.062 67.0394 557.15L63.5341 562.299L63.0333 567.447L64.0348 573.11C69.0425 577.228 75.6526 589.584 66.0379 595.762C56.4232 601.94 17.4635 594.217 1.439 589.069Z" fill="#0095B7"/>
<path id="piece-17" d="M166.72 474.052C167.955 468.247 172.77 448.882 172.604 444.192L208.104 447.136C220.104 447.136 232.604 450.552 235.604 442.107C238.507 433.934 229.976 427.049 229.349 421.052C228.351 411.503 243.011 402.164 248.604 401.552C256.894 400.644 275.104 403.552 278.795 406.026C281.225 407.654 290.48 415.977 281.997 429.547C272.84 444.192 279.72 442.477 283.499 444.539C288.106 447.052 295.121 447.057 304.104 446.052C312.833 445.075 335.393 443.288 345.373 441.11C348.201 445.466 353.557 462.615 352.36 484.325C350.863 511.463 328.905 495.382 320.422 493.371C303.455 491.361 303.455 521.012 303.455 525.032C303.455 529.053 308.445 549.658 325.911 541.617C343.377 533.576 346.355 539.104 349.349 541.617C352.343 544.13 347.842 579.128 344.349 591.692C338.86 588.174 288.336 583.169 281.849 587.692C275.362 592.215 276.009 596.112 284.991 611.692C282.995 627.773 274.849 627.692 268.349 629.256C261.849 629.692 261.387 629.256 257.794 629.256C253.302 629.256 230.347 624.733 229.349 616.692C228.351 608.651 236.586 600.919 237.584 598.406C238.582 595.893 238.84 592.375 234.349 587.852C229.858 583.329 202.962 583.679 193.979 586.192C186.793 588.202 178.427 585.522 173.604 586.192C172.106 581.501 167.942 567.829 168.341 552.552C168.84 533.455 174.61 536.057 178.104 535.052C181.597 534.047 190.122 542.044 199.604 543.552C209.085 545.059 214.608 534.121 217.104 520.552C215.107 492.911 210.104 496.052 202.104 490.052C198.59 487.417 193.764 489.374 190.604 491.552C188.108 492.389 173.999 501.68 171.604 496.052C168.609 489.016 164.704 483.528 166.72 474.052Z" fill="#A1FF5E"/>
<path id="piece-18" d="M495.604 438.052C502.379 438.956 514.104 439.552 520.104 442.052L517.104 457.052L515.104 468.552C513.913 478.124 514.115 493.809 521.104 497.743C534.293 505.166 536.039 492.075 543.104 488.552C553.08 483.577 564.739 499.204 565.739 507.204C566.686 514.785 562.006 537.926 559.104 539.225C556.201 540.523 546.968 548.725 532.968 539.225C517.515 528.738 517.354 542.552 517.104 543.552C515.104 551.552 516.604 553.552 517.104 561.052C517.593 568.386 517.918 580.295 520.604 588.552C515.576 590.996 494.272 595.485 468.982 594.948C437.369 594.277 455.757 573.451 457.968 566.351C460.052 552.195 430.149 549.651 425.469 549.737C420.788 549.822 396.879 556.63 406.503 570.989C416.127 585.348 411.983 592.404 409.104 594.948C406.224 597.492 361.146 593.691 346.468 591.052C350.48 586.411 353.506 539.28 346.468 536.573C339.968 534.073 342.968 534.771 324.969 542.573C307.189 546.573 308.054 535.054 305.603 531.051C303.603 524.551 303.603 518.137 303.603 515.551C303.603 506.161 307.759 494.552 317.104 493.551C326.448 492.551 337.163 499.274 340.104 500.051C343.044 500.828 343.906 500.883 349.104 497.051C354.301 493.219 353.238 471.496 352.103 463.551C351.103 456.551 346.456 445.05 345.603 441.051C351.041 439.707 363.906 436.888 381.604 435.551C401.469 434.052 414.104 434.552 414.104 446.551C414.104 449.684 404.143 457.028 405.104 465.052C406.239 474.53 419.271 478.586 435.104 480.374C467.104 480.374 462.239 461.353 460.239 457.853C458.426 454.681 459.351 457.663 455.851 450.552C454.839 448.494 453.723 440.163 460.239 438.052C468.383 435.412 487.391 436.955 495.604 438.052Z" fill="#9B5402"/>
<path id="piece-19" d="M515.796 462.912C517.034 457.137 519.963 447.078 519.796 442.412L555.104 446.912C566.604 448.078 583.404 449.212 584.604 442.412C586.104 433.912 578.732 425.019 578.104 419.052C577.104 409.552 592.198 403.141 597.604 401.552C606.104 399.051 619.604 403.052 624.104 404.552C627.286 405.612 643.104 406.552 631.296 429.412C623.394 444.711 627.076 446.083 631.296 446.912C637.104 448.052 645.604 449.552 654.604 448.552C663.35 447.58 684.104 444.578 694.104 442.412C696.937 446.745 701.093 460.452 699.893 482.052C698.393 509.052 675.701 492.912 667.201 490.912C650.201 488.912 650.104 520.412 650.104 524.412C650.104 528.412 657.104 547.052 674.604 539.052C692.104 531.052 696.796 535.412 699.796 537.912C702.796 540.412 696.604 579.552 693.104 592.052C687.604 588.552 633.956 583.022 629.604 589.552C624.604 597.052 629.604 601.052 634.104 610.552C636.604 618.552 633.104 622.552 621.604 629.052C614.104 631.052 607.704 631.552 604.104 631.552C599.604 631.552 577.104 625.552 576.104 617.552C575.104 609.552 585.796 599.912 586.796 597.412C587.796 594.912 587.604 591.912 583.104 587.412C578.604 582.912 554.104 582.912 545.604 584.552C535.515 586.498 526.437 588.885 521.604 589.552C520.104 584.885 515.896 567.612 516.296 552.412C516.796 533.412 521.296 534.412 524.796 533.412C528.296 532.412 538.717 539.412 548.217 540.912C557.717 542.412 562.107 530.912 564.607 517.412C562.607 489.912 548.607 490.912 543.107 490.912C538.707 490.912 532.27 497.385 529.104 499.552C526.604 500.385 519.196 498.512 516.796 492.912C513.796 485.912 514.296 469.912 515.796 462.912Z" fill="black"/>
<path id="piece-20" d="M866.903 441.234L866.805 590.633L858.969 592.201C836.092 596.911 844.061 595.963 818.648 596.117C801.184 596.223 796.519 589.342 800.003 584.341L807.922 565.747C806.879 559.228 798.278 548.186 776.202 549.969C748.606 552.197 752.112 566.566 755.752 571.73C758.284 575.32 759.313 579.436 759.332 582.527C758.353 586.654 758.078 590.983 752.875 593.899C747.672 596.816 737.835 597.081 737.835 597.081C723.281 597.685 703.243 592.651 695.533 590.637C695.518 588.062 698.544 581.1 699.5 566.721C704.869 541.445 695.269 533.661 688.264 537.31C662.755 552.602 655.876 536.059 652.823 529.38C649.771 522.701 647.568 505.25 656.036 494.38C664.503 483.51 677.917 495.318 686.958 496.294C696 497.269 700.774 487.904 700.746 483.268C700.726 479.946 698.12 453.243 695.537 441.238C699.01 440.209 702.642 436.336 729.125 432.878C762.23 428.556 761.223 438.247 762.255 442.877C763.287 447.508 755.705 457.635 755.755 465.878C755.805 474.12 759.724 481.551 779.294 480.402C794.95 479.483 798.681 476.679 801.34 473.572L804.822 468.399L805.293 463.244L804.255 457.584C799.21 453.493 792.509 441.17 802.11 434.93C811.71 428.689 850.809 436.18 866.903 441.234Z" fill="#646464"/>
<path id="piece-21" d="M178.104 710.552C177.615 717.459 176.15 729.706 174.207 735.313L168.207 735.313C162.834 734.427 153.747 732.504 149.604 731.451C144.424 730.135 119.791 726.733 111.707 731.451C103.624 736.169 111.131 747.222 113.994 751.552C116.707 764.07 116.307 764.902 113.994 767.052C111.681 769.202 107.631 780.066 86.8869 775.148C69.6036 771.052 72.1036 772.552 67.1036 769.052C64.3477 767.122 60.4126 763.211 60.4212 761.052C60.4298 758.892 59.2622 755.274 60.4212 753.552C61.5802 751.829 67.64 741.386 68.2247 739.229C68.8094 737.072 69.4026 732.756 67.1036 731.451C64.8046 730.147 56.4078 726.061 54.1036 726.052C52.2602 726.044 32.3318 727.058 30.6036 727.052L20.1036 728.552L2.35365 733.642L2.35367 586.052C7.72556 587.225 29.079 595.648 34.6036 597.052C47.1036 600.228 62.4831 597.556 67.1036 594.552C71.7241 591.547 71.7944 583.557 70.1036 581.052C68.3977 578.523 69.0461 577.52 65.6036 574.052C62.1611 570.583 63.4232 564.139 64.1036 562.552C65.6036 559.052 66.6036 555.574 73.6036 553.552C82.6036 550.951 92.6249 549.368 99.7072 551.451C116.707 556.451 114.989 568.45 113.207 571.951C110.104 578.052 109.352 579.152 107.604 582.052C105.795 585.051 105.028 591.105 111.604 594.552C113.768 595.686 125.615 595.522 133.104 595.552C139.095 595.575 162.604 591.552 172.104 588.552C174.941 599.215 178.666 622.677 179.104 628.552C179.65 635.895 177.093 645.268 174.207 646.552C171.322 647.836 166.484 648.063 163.604 648.052C160.723 648.04 155.479 643.359 152.604 642.052C149.729 640.745 141.718 637.291 135.707 644.951C131.654 650.117 128.116 662.029 128.104 665.052C128.092 668.074 130.241 680.222 133.104 684.552C135.967 688.881 135.169 688.917 146.104 691.552C157.038 694.186 165.021 678.742 174.207 686.552C179.877 691.372 178.714 701.917 178.104 710.552Z" fill="#421A00"/>
<path id="piece-22" d="M200.604 742.114C193.82 741.271 179.626 738.497 173.604 736.052L176.499 729.187L177.604 719.052C176.014 710.47 182.104 689.269 175.604 685.688C162.347 678.385 156.98 690.34 150.014 691.052C138.924 692.185 129.573 684.123 128.604 679.187C127.104 671.552 131.08 646.856 133.971 645.531C136.861 644.206 141.349 635.18 155.435 644.551C170.984 654.897 176.863 645.554 177.104 644.551C179.031 636.533 178.604 631.616 178.604 624.051C178.604 616.968 174.69 598.051 173.104 586.051C187.604 586.051 204.104 583.551 228.604 586.051C248.615 588.093 230.75 605.432 228.604 612.551C226.649 626.726 258.014 631.179 262.693 631.051C267.372 630.924 293.633 623.009 283.878 608.738C274.123 594.468 281.022 590.121 283.878 587.551C286.734 584.981 333.213 589.02 346.104 593.552C342.134 598.229 340.519 643.544 347.581 646.187C354.104 648.628 349.676 648.517 367.604 640.552C385.347 636.39 386.25 645.222 388.737 649.202C388.767 650.309 392.522 666.563 392.604 669.552C392.706 673.287 386.029 690.601 376.693 691.687C367.358 692.773 360.64 686.937 357.693 686.187C354.746 685.437 352.743 682.308 347.581 686.187C342.42 690.066 341.301 705.861 341.374 713.886C341.436 720.634 345.214 730.061 346.104 734.052C340.679 735.446 322.828 741.078 305.138 742.966C284.657 745.153 274.059 738.216 276.104 732.052C277.09 729.078 284.205 720.779 285.744 712.846C287.283 704.912 276.452 698.695 260.604 697.052C228.605 697.343 230.479 710.416 230.604 714.981C230.703 718.633 233.93 720.503 237.495 727.583C238.526 729.631 241.335 738.303 234.838 740.475C226.718 743.188 208.826 743.135 200.604 742.114Z" fill="#9F7F7F"/>
<path id="piece-23" d="M339.349 608.192C340.584 602.387 346.27 596.826 346.104 592.136L382.104 597.052C393.581 598.224 412.406 598.971 413.604 592.136C415.101 583.592 404.976 573.006 404.349 567.008C403.351 557.46 414.709 552.149 420.104 550.552C428.587 548.039 445.104 551.552 448.604 554.052C450.984 555.752 463.587 560.982 455.104 574.552C445.947 589.198 453.202 589.368 456.5 592.136C459.494 594.649 468.121 595.654 477.104 594.649C485.833 593.672 510.393 589.288 520.373 587.11C523.201 591.466 527.239 612.795 526.041 634.506C524.544 661.644 502.587 645.562 494.104 643.552C477.137 641.541 478.455 666.012 478.455 670.032C478.455 674.053 483.445 694.658 500.911 686.617C518.377 678.576 521.355 684.104 524.349 686.617C527.343 689.13 522.597 720.288 519.104 732.852C513.614 729.334 461.836 725.469 455.349 729.992C448.862 734.515 455.349 736.052 459.991 756.691C457.995 772.773 449.849 772.691 443.349 774.255C436.849 774.691 436.387 774.255 432.794 774.255C428.302 774.255 404.602 766.592 403.604 758.552C402.606 750.511 410.106 745.064 411.104 742.552C412.102 740.039 413.595 732.575 409.104 728.052C404.612 723.529 380.772 725.336 371.604 727.052C362.728 728.712 351.428 732.182 346.604 732.852C345.107 728.162 342.321 719.329 342.72 704.052C343.219 684.954 348.11 686.057 351.604 685.052C355.097 684.046 364.622 691.544 374.104 693.052C383.585 694.559 396.24 677.052 392.104 657.552C388.604 641.052 378.093 639.552 372.604 639.552C368.212 639.552 356.764 645.374 353.604 647.552C347.104 648.552 344.521 644.827 342.126 639.198C339.132 632.162 337.333 617.668 339.349 608.192Z" fill="#007B4E"/>
<path id="piece-24" d="M667.604 587.052C674.334 588.076 687.242 591.775 692.667 591.552L685.335 611.052C684.119 621.438 686.682 645.577 694.604 646.552C704.506 647.77 710.173 639.712 717.104 639.052C728.138 638.001 731.189 643.703 733.104 648.552C736.114 656.175 735.604 662.552 734.604 670.552C734.206 673.733 732.194 689.177 715.104 685.552C698.603 682.051 695.828 680.529 692.667 683.552C689.796 686.296 684.42 696.189 685.335 702.013C686.572 709.883 690.025 723.07 692.667 732.052C687.662 734.674 670.798 742.289 645.667 741.547C614.252 740.619 625.104 729.552 633.948 715.759C636.066 700.401 611.448 696.076 603.104 696.189C598.453 696.252 569.684 704.4 579.2 720.052C588.716 735.703 583.164 742.818 579.2 743.047C540.604 745.268 532.896 738.834 518.318 735.875C522.32 730.861 529.416 692.341 524.104 686.552C518.792 680.762 513.018 680.694 495.104 689.052C487.104 689.552 484.604 684.552 480.104 677.552C478.604 672.552 478.648 667.297 478.604 664.052C478.549 659.995 480.314 644.963 489.604 643.936C498.894 642.908 512.06 651.552 515.104 651.552C518.604 651.552 517.926 652.179 523.104 648.052C528.282 643.924 529.037 612.431 526.02 604.356C523.606 597.896 521.712 585.609 520.878 581.262C526.286 579.836 542.685 576.999 560.365 577.121C582.341 577.272 584.853 583.819 586.066 586.98L586.086 587.033C587.292 590.172 579.279 599.677 577.65 608.266C576.022 616.854 589.448 620.631 605.176 622.673C637.129 620.437 631.364 607.891 631.297 602.932C631.244 598.965 632.162 602.372 629.604 599.552C624.104 590.052 630.621 589.303 637.104 587.052C645.207 584.237 656.616 585.378 667.604 587.052Z" fill="white"/>
<path id="piece-25" d="M684.822 615.513C685.162 608.596 690.457 595.881 692.279 590.235L697.118 590.235C702.508 591.005 711.938 591.114 716.103 592.079C721.309 593.284 745.706 597.779 753.687 592.889C761.668 588 759.558 579.819 756.604 575.552C754.604 570.552 749.604 567.052 754.604 558.051C756.137 555.291 764.604 550.052 777.604 550.052C798.922 550.051 802.715 556.918 803.604 558.052C804.982 559.81 807.566 562.893 807.604 565.052C807.641 567.211 805.726 571.304 804.604 573.052C803.482 574.799 802.117 579.356 800.604 581.552C799.335 583.391 798.245 587.784 799.604 590.052C801.572 593.336 802.938 593.703 805.957 594.512L806.104 594.552C812.604 596.296 812.104 596.052 820.104 596.552L848.104 594.552L866.09 591.552L866.09 734.552C860.694 733.494 838.636 728.987 833.082 727.701C826.141 726.094 803.92 727.471 800.665 731.918C799.104 734.052 797.104 735.052 798.104 738.134C799.037 741.009 798.604 742.552 801.439 746.552C804.275 750.552 806.074 754.825 806.104 756.552C806.134 758.279 803.304 764.498 797.604 768.052C791.904 771.606 772.729 772.483 765.604 770.552C748.501 765.916 748.351 752.271 750.604 749.052C755.314 742.321 755.108 742.741 757.352 740.052C758.604 738.552 757.622 736.052 757.352 734.657C755.591 725.552 744.091 726.922 736.604 727.052C730.614 727.156 702.048 731.383 692.279 732.848C689.214 722.248 686.861 706.436 686.298 700.572C685.594 693.242 687.8 687.246 690.658 685.901C693.515 684.556 697.719 683.093 700.599 683.043C703.479 682.993 710.211 684.176 713.114 685.422C716.016 686.667 725.693 687.669 731.539 679.882C735.481 674.631 735.734 666.812 735.681 663.79C735.629 660.767 735.448 652.122 732.494 647.854C729.539 643.586 731.654 641.505 720.666 639.105C709.678 636.704 701.63 652.324 692.279 644.712C686.507 640.013 684.395 624.158 684.822 615.513Z" fill="#FFC6FE"/>
<path id="piece-26" d="M1.6036 876.552V733.552C9.77027 732.218 27.2036 729.152 31.6036 727.552C37.1036 725.551 62.6036 725.052 66.6036 731.552C69.8036 736.752 63.6036 746.718 60.1036 751.052C57.2703 757.052 57.8036 769.952 82.6036 773.552C113.604 778.052 116.104 765.552 116.104 757.552C116.104 749.552 104.104 736.552 107.604 733.552C111.104 730.552 117.604 729.052 130.104 727.552C140.104 726.352 164.437 733.052 174.604 736.552C172.27 741.885 167.404 755.852 166.604 769.052C165.604 785.552 171.604 790.552 178.604 790.552C185.604 790.552 195.104 779.052 202.104 785.052C224.104 805.552 212.104 827.552 202.104 834.052C192.104 840.552 180.104 823.052 171.604 829.052C164.804 833.852 168.77 862.718 171.604 876.552H1.6036Z" fill="#989866"/>
<path id="piece-27" d="M171.604 875.664L346.604 875.664L348.1 871.051C348.765 867.551 348.382 866.852 349.181 864.052C349.979 861.251 351.772 856.552 352.104 853.552C352.435 850.718 353.505 846.251 353.104 843.052C352.702 839.852 354.604 844.052 352.104 836.552C349.604 829.052 345.604 826.052 342.706 826.052C339.665 826.052 345.03 824.207 334.104 828.052C329.772 830.887 327.604 834.05 324.104 833.552C320.603 833.054 314.606 834.065 309.604 830.068C305.602 826.87 303.104 826.552 303.104 813.052C303.104 806.552 303.007 800.154 306.604 794.552C311.1 787.549 318.104 784.054 321.604 784.052C330.677 784.052 334.051 787.722 339.174 790.552C344.604 793.552 348.607 791.554 352.604 785.552C355.801 780.75 349.299 748.905 346.625 735.073C337.793 737.078 316.003 741.544 301.604 743.552C283.605 746.062 276.104 739.052 276.104 732.131C283.096 717.627 291.104 714.552 281.604 704.052C277.779 699.824 261.604 697.052 249.604 697.052C238.093 697.052 226.599 709.555 232.104 718.052C237.608 726.549 243.601 734.048 237.604 738.052C231.606 742.055 222.104 744.045 209.104 743.552C198.703 743.158 180.438 737.714 173.604 736.552L165.104 767.168C165.441 775.002 169.104 796.704 183.061 788.552C195.057 781.545 202.601 784.053 206.104 788.552C209.606 793.05 213.104 796.052 215.17 811.142C217.081 825.092 202.104 835.55 199.104 835.552C196.104 835.553 187.104 832.167 178.104 828.052C171.626 825.089 169.104 828.052 168.182 832.167C166.35 840.349 168.179 847.552 168.182 853.552C168.185 859.552 169.768 870.832 171.604 875.664Z" fill="#A8412C"/>
<path id="piece-28" d="M492.604 729.552C500.606 729.888 515.594 731.983 522.104 733.552C521.132 738.065 518.524 748.198 517.346 751.682C515.873 756.038 512.561 781.325 518.104 788.052C523.646 794.778 529.619 789.998 534.603 787.552C548.104 782.052 552.103 786.763 555.103 789.052C559.666 792.531 560.604 797.052 562.104 805.552C565.21 823.155 561.37 826.683 560.603 827.843C557.894 831.945 556.103 834.536 553.603 834.552C551.103 834.567 546.609 836.005 544.603 835.052C542.597 834.098 536.561 831.519 534.058 831.052C531.555 830.584 524.786 826.74 522.603 827.843C520.798 828.756 520.103 827.052 518.338 829.913C517.526 831.228 514.603 835.552 515.103 839.552L516.603 862.052L520.798 875.552L347.103 875.552C348.408 871.036 351.033 860.198 352.604 855.552C354.567 849.744 353.628 835.393 350.104 831.552C346.579 827.71 345.603 825.53 342.104 825.552C338.604 825.574 337.085 826.629 333.104 829.552C329.122 832.474 321.604 833.039 319.604 833.052C317.604 833.064 303.603 830.972 303.603 822.296C303.603 816.025 305.587 790.684 308.55 784.87C311.514 779.056 320.004 777.553 324.507 778.008C329.01 778.463 336.047 784.214 340.05 784.672C344.053 785.129 347.04 783.179 349.031 781.717C351.022 780.256 351.464 771.077 351.425 764.799C351.393 759.777 348.282 742.12 346.731 733.92C359.048 731.428 385.384 726.336 392.181 725.907C400.678 725.371 413.196 728.19 414.711 730.595C416.226 733 414.744 735.907 414.76 738.322C414.775 740.736 410.808 746.074 409.323 748.498C407.839 750.922 407.909 762.029 413.93 765.372C419.951 768.715 428.684 770.531 432.184 770.509C435.684 770.487 442.187 770.929 447.171 768.483C452.156 766.036 456.423 764.139 459.365 754.944C462.307 745.75 447.171 736.552 454.604 731.552C460.679 727.464 482.601 729.131 492.604 729.552Z" fill="#DCDCDC"/>
<path id="piece-29" d="M520.603 875.052L694.603 876.052L696.621 871.052C697.26 867.673 698.497 859.257 699.275 856.552C700.053 853.846 699.892 850.999 700.202 848.105C700.513 845.371 701.029 839.133 700.604 836.052C700.178 832.97 696.123 832.452 694.603 830.052C693.084 827.652 687.661 827.288 686.104 827.552C683.108 828.058 675.601 834.226 675.104 834.552C670.793 837.318 660.635 839.052 658.119 834.552C655.604 830.052 654.028 833.052 650.104 819.052C648.74 814.188 650.296 807.763 650.104 804.552C649.554 798.451 651.548 796.479 655.104 791.052C659.548 784.267 664.104 785.08 667.604 785.052C672.576 781.637 685.448 796.103 690.932 794.13C696.417 792.157 699.275 786.552 700.604 779.552C701.653 774.025 697.68 746.013 694.905 732.701C686.087 734.701 673.487 740.506 659.104 742.552C641.124 745.108 619.104 739.552 625.604 730.552C632.489 716.517 635.639 710.861 632.104 706.552C628.568 702.242 613.104 696.255 601.601 695.867C590.097 695.479 573.037 709.403 578.604 717.552C584.17 725.7 589.072 738.647 583.104 742.552C577.135 746.456 566.607 744.427 553.604 744.052C543.201 743.751 526.446 737.62 519.604 736.552L513.71 770.801C514.105 778.349 517.048 795.528 526.603 790.052C538.548 783.206 552.068 783.743 555.603 788.052C559.139 792.361 564.993 804.044 563.603 817.552C562.214 831.059 559.508 836.966 549.103 835.552C533.603 833.444 535.615 829.94 528.603 828.552C521.592 827.163 515.151 830.322 515.21 837.552C515.269 844.781 516.044 848.322 516.103 855.552C516.151 861.335 518.732 870.408 520.603 875.052Z" fill="#4B488B"/>
<path id="piece-30" d="M867.5 875.381V732.381C859.333 731.048 842.182 726.381 837.5 726.381C824.604 726.381 802.604 728.552 798.604 735.052C795.404 740.252 801.104 745.548 804.604 749.881C807.437 755.881 811.3 768.781 786.5 772.381C755.5 776.881 748.604 757.881 748.604 749.881C748.604 741.881 759.707 743.052 755.104 732.381C753.277 728.148 751.604 727.881 739.104 726.381C729.104 725.181 705.604 730.381 694.604 732.381C696.937 737.714 700.804 753.852 701.604 767.052C702.604 783.552 698.604 794.552 691.604 794.552C684.604 794.552 667.104 782.052 660.104 788.052C646.104 800.052 650.104 828.552 660.104 835.052C670.104 841.552 689 826.881 697.5 832.881C704.3 837.681 700.333 861.548 697.5 875.381H867.5Z" fill="#120852"/>
</g>
</svg>
