<svg width="873" height="882" viewBox="0 0 873 882" fill="none" xmlns="http://www.w3.org/2000/svg">
<g id="Group 1">
<path id="puzzle-1" d="M6.01271 148.025V7.02536V3.02536L172.013 2.52536L177.013 19.5254L177.513 47.5254L177.013 50.5254L176.013 53.5254L173.013 57.0254L170.013 57.5254H166.513L163.513 56.0254C159.013 52.3587 149.713 48.3254 142.513 51.5254C133.513 55.5254 130.013 62.0254 130.013 74.0254C130.013 86.0254 131.874 95.0206 141.013 101.164C146.013 104.525 153.013 99.5254 156.513 97.164C160.977 94.1522 168.013 90.5254 173.013 94.5254C178.013 98.5254 179.013 104.525 179.513 116.525C179.913 126.125 175.346 141.525 173.013 148.025C167.513 146.525 152.213 143.525 135.013 143.525C113.513 143.525 114.513 148.525 111.013 155.525C107.513 162.525 122.513 174.025 114.513 181.525C106.513 189.025 91.5127 190.525 74.5127 187.525C57.5127 184.525 60.0127 168.525 69.0127 158.525C69.5127 157.192 70.5127 154.025 70.5127 152.025C70.5127 149.525 69.0127 148.025 67.0127 146.025C65.4127 144.425 63.0127 144.025 62.0127 144.025C62.0127 144.025 29.5127 145.025 26.5127 145.025L6.01271 148.025Z" stroke="#525252" stroke-width="5"/>
<path id="puzzle-2" d="M204.013 157.525C196.013 157.125 179.513 151.692 173.013 150.025L173.513 146.525C174.513 141.859 176.313 133.625 177.513 130.025C179.013 125.525 181.513 105.525 176.013 98.5254C170.513 91.5254 166.013 92.5254 161.013 95.0254C146.513 106.525 141.513 101.525 139.013 99.5254C136.513 97.5254 130.013 94.5254 129.513 76.0254C129.013 57.5254 138.013 54.0254 139.013 53.0254C139.26 52.7777 144.013 50.0254 146.513 50.0254C149.013 50.0254 153.013 50.0254 155.013 51.0254C157.013 52.0254 163.013 56.0254 165.513 56.5254C168.013 57.0254 173.013 57.5254 174.513 55.5254C176.013 53.5254 177.013 51.0254 177.013 49.0254V42.5254V20.5254L172.013 2.52536L352.013 3.02536C350.679 7.69203 349.613 21.7254 348.013 26.5254C346.013 32.5254 344.513 54.0254 348.013 58.0254C351.513 62.0254 352.513 60.5254 356.013 60.5254C359.513 60.5254 360.513 59.0254 364.513 56.0254C368.513 53.0254 374.013 53.0254 376.013 53.0254C378.013 53.0254 384.013 56.5254 388.013 61.5254C392.013 66.5254 389.513 91.0254 386.513 97.0254C383.513 103.025 375.013 104.525 370.513 104.025C366.013 103.525 359.013 97.5254 355.013 97.0254C351.013 96.5254 348.013 98.5254 346.013 100.025C344.013 101.525 343.513 111.025 343.513 117.525C343.513 122.725 346.513 141.025 348.013 149.525C335.679 152.025 309.313 157.125 302.513 157.525C294.013 158.025 281.513 155.025 280.013 152.525C278.513 150.025 280.013 147.025 280.013 144.525C280.013 142.025 284.013 136.525 285.513 134.025C287.013 131.525 287.013 120.025 281.013 116.525C275.013 113.025 266.291 111.089 262.791 111.089C259.291 111.089 252.791 110.589 247.791 113.089C242.791 115.589 238.513 117.525 235.513 127.025C232.513 136.525 248.013 147.025 239.013 155.025C233.457 159.964 214.013 158.025 204.013 157.525Z" stroke="#525252" stroke-width="5"/>
<path id="puzzle-3" d="M522.513 2.52536L350.996 5.02321L348.98 10.0962C348.341 13.5248 347.107 22.0629 346.33 24.808C345.553 27.553 345.714 30.4414 345.405 33.3782C345.095 36.152 344.581 42.4811 345.007 45.6074C345.433 48.7336 347.459 56.0904 348.98 58.5254C350.5 60.9604 356.693 60.8198 361.513 56.5254C363.782 54.5033 362.018 57.3832 371.013 51.5254C375.323 48.7183 382.996 53.9598 385.513 58.5254C388.03 63.091 390.546 62.5195 390.013 70.5254C389.513 78.0254 390.506 79.5254 390.013 84.5254C389.667 88.0254 389.513 87.5254 388.513 92.7627C386.976 100.81 385.013 101.525 381.013 103.525C371.513 109.525 366.503 100.119 357.503 98.1188C349.633 96.3698 345.34 98.9232 344.013 106.025C342.965 111.633 345.734 136.019 348.513 149.525C357.329 147.496 371.13 145.601 385.513 143.525C403.492 140.931 422.51 143.894 416.013 153.025C409.131 167.265 407.976 177.653 411.513 182.025C415.049 186.397 431.478 190.716 444.013 188.525C455.351 186.544 469.082 177.793 463.513 169.525C457.944 161.258 454.545 150.516 460.513 146.554C466.48 142.592 478.509 142.645 491.513 143.025C501.916 143.33 516.17 148.441 523.013 149.525L529.513 117.525C529.116 109.867 532.711 99.9934 517.009 93.5254C508.513 90.0254 509.013 108.525 487.513 100.025C482.283 97.958 479.127 80.2298 480.513 66.5253C481.899 52.8209 489.815 49.5254 500.013 49.5254C512.013 49.5254 509.997 55.6166 517.009 57.0254C524.021 58.4341 527.574 52.8604 527.513 45.5254C527.452 38.1904 527.574 33.8604 527.513 26.5254C527.464 20.6574 524.013 6.52536 522.513 2.52536Z" stroke="#525252" stroke-width="5"/>
<path id="puzzle-4" d="M554.533 157.525C546.533 157.125 530.033 151.692 523.533 150.025L524.033 146.525C525.033 141.859 526.833 133.625 528.033 130.025C529.533 125.525 532.033 105.525 526.533 98.5254C521.033 91.5254 516.533 92.5254 511.533 95.0254C497.033 106.525 492.033 101.525 489.533 99.5254C487.033 97.5254 480.533 94.5254 480.033 76.0254C479.533 57.5254 488.533 54.0254 489.533 53.0254C489.78 52.7777 494.533 50.0254 497.033 50.0254C499.533 50.0254 503.533 50.0254 505.533 51.0254C507.533 52.0254 513.533 56.0254 516.033 56.5254C518.533 57.0254 523.533 57.5254 525.033 55.5254C526.533 53.5254 527.533 51.0254 527.533 49.0254V42.5254V20.5254L522.533 2.52536L702.533 3.02536C701.199 7.69203 700.133 21.7254 698.533 26.5254C696.533 32.5254 695.033 54.0254 698.533 58.0254C702.033 62.0254 703.033 60.5254 706.533 60.5254C710.033 60.5254 711.033 59.0254 715.033 56.0254C719.033 53.0254 724.533 53.0254 726.533 53.0254C728.533 53.0254 734.533 56.5254 738.533 61.5254C742.533 66.5254 740.033 91.0254 737.033 97.0254C734.033 103.025 725.533 104.525 721.033 104.025C716.533 103.525 709.533 97.5254 705.533 97.0254C701.533 96.5254 698.533 98.5254 696.533 100.025C694.533 101.525 694.033 111.025 694.033 117.525C694.033 122.725 697.033 141.025 698.533 149.525C686.199 152.025 659.833 157.125 653.033 157.525C644.533 158.025 632.033 155.025 630.533 152.525C629.033 150.025 630.533 147.025 630.533 144.525C630.533 142.025 634.533 136.525 636.033 134.025C637.533 131.525 637.533 120.025 631.533 116.525C625.533 113.025 616.811 111.089 613.311 111.089C609.811 111.089 603.311 110.589 598.311 113.089C593.311 115.589 589.033 117.525 586.033 127.025C583.033 136.525 598.533 147.025 589.533 155.025C583.977 159.964 564.533 158.025 554.533 157.525Z" stroke="#525252" stroke-width="5"/>
<path id="puzzle-5" d="M703.513 3.02536C703.47 3.18858 703.427 3.35531 703.383 3.52536M703.383 3.52536C701.178 12.0374 697.013 28.888 697.013 32.0254C697.013 36.0254 695.013 42.0254 697.013 53.5254C698.613 62.7254 706.013 61.3587 709.513 59.5254C712.679 57.0254 719.513 51.9254 721.513 51.5254C724.013 51.0254 738.013 53.0254 741.013 67.5254C744.013 82.0254 740.013 95.0254 737.013 98.0254C734.013 101.025 729.013 105.525 721.513 104.525C714.013 103.525 710.513 99.0254 707.513 98.0254C704.513 97.0254 702.013 96.5254 699.513 98.0254C697.013 99.5254 694.013 102.525 694.013 116.025C694.013 126.825 697.013 142.859 698.513 149.525C707.513 147.525 727.213 143.525 734.013 143.525C742.513 143.525 756.013 141.025 761.513 149.525C767.013 158.025 754.513 157.525 753.013 167.025C751.513 176.525 753.013 190.025 780.013 190.025C807.013 190.025 814.013 176.525 800.513 154.525C798.013 148.025 810.513 140.525 835.013 145.025C854.613 148.625 865.179 149.525 868.013 149.525V3.52536H703.383Z" stroke="#525252" stroke-width="5"/>
<path id="puzzle-6" d="M2.51271 294.025L3.51271 149.025L11.3273 147.549C34.1418 143.112 26.1987 143.986 51.5127 143.986C68.908 143.986 73.5127 150.692 70.0127 155.525L62.0127 173.525C63.0127 179.859 71.5127 190.625 93.5127 189.025C121.013 187.025 117.608 173.058 114.013 168.025C111.513 164.525 110.513 160.525 110.513 157.525C111.513 153.525 111.813 149.325 117.013 146.525C122.213 143.725 132.013 143.525 132.013 143.525C146.513 143.025 165.346 146.025 173.013 148.025C173.013 150.525 174.413 159.617 170.013 173.217C164.513 197.717 174.013 207.718 181.013 204.218C206.513 189.525 212.513 205.525 215.513 212.025C218.513 218.525 218.013 234.525 209.513 245.025C201.013 255.525 189.013 242.525 180.013 241.525C171.013 240.525 169.513 250.526 169.513 255.025C169.513 258.25 171.013 281.359 173.513 293.025C169.513 295.465 169.913 295.825 143.513 299.025C110.513 303.025 108.513 297.525 107.513 293.025C106.513 288.525 115.513 281.525 115.513 273.525C115.513 265.525 109.513 255.525 90.0127 256.525C74.4127 257.325 70.6794 260.025 68.0127 263.025L64.5127 268.025L64.0127 273.025L65.0127 278.525C70.0127 282.525 76.6127 294.525 67.0127 300.525C57.4127 306.525 18.5127 299.025 2.51271 294.025Z" stroke="#525252" stroke-width="5"/>
<path id="puzzle-7" d="M169.013 170.025C170.25 164.251 173.179 154.192 173.013 149.525L206.513 157.525C218.013 158.692 239.813 159.325 241.013 152.525C242.513 144.025 234.641 134.992 234.013 129.025C233.013 119.525 247.107 112.615 252.513 111.025C261.013 108.525 279.013 112.025 280.513 114.525C282.013 117.025 293.013 123.025 284.513 136.525C275.338 151.097 279.708 151.272 283.013 154.025C286.013 156.525 298.013 157.525 307.013 156.525C315.759 155.554 338.013 151.192 348.013 149.025C350.846 153.359 356.213 169.425 355.013 191.025C353.513 218.025 331.513 202.025 323.013 200.025C306.013 198.025 306.013 227.525 306.013 231.525C306.013 235.525 311.013 256.025 328.513 248.025C346.013 240.025 350.013 242.525 353.013 245.025C356.013 247.525 352.513 281.525 349.013 294.025C343.513 290.525 294.013 285.525 287.513 290.025C281.013 294.525 282.013 297.525 291.013 313.025C289.013 329.025 276.513 333.025 270.513 333.025H262.013C257.513 333.025 234.513 328.525 233.513 320.525C232.513 312.525 239.013 307.025 240.013 304.525C241.013 302.025 245.353 295.525 240.853 291.025C236.353 286.525 207.353 287.025 198.353 289.525C191.153 291.525 178.346 292.859 173.513 293.525C172.013 288.859 169.113 274.725 169.513 259.525C170.013 240.525 174.513 241.525 178.013 240.525C181.513 239.525 191.933 246.525 201.433 248.025C210.933 249.525 215.323 238.025 217.823 224.525C215.823 197.025 201.823 198.025 196.323 198.025C191.923 198.025 184.679 202.359 181.513 204.525C179.013 205.359 172.413 205.625 170.013 200.025C167.013 193.025 167.513 177.025 169.013 170.025Z" stroke="#525252" stroke-width="5"/>
<path id="puzzle-8" d="M496.761 144.198C503.536 145.103 516.513 148.025 522.513 150.525L520.013 163.525L518.323 175.025C517.132 184.598 514.024 197.592 521.013 201.525C534.202 208.949 538.741 197.938 545.713 197.29C556.813 196.258 565.11 207.812 567.052 212.266C570.105 219.27 565.415 243.227 562.513 244.525C559.61 245.824 552.013 256.177 538.013 246.677C522.559 236.191 521.263 247.525 521.013 248.525C519.013 256.525 517.707 262.075 519.013 269.525C520.282 276.766 520.827 286.269 523.513 294.525C518.485 296.97 499.316 302.937 474.026 302.401C442.413 301.73 460.801 280.903 463.013 273.804C465.096 259.648 435.193 257.104 430.513 257.189C425.833 257.274 401.923 264.083 411.547 278.442C421.06 292.633 414.582 298.348 411.65 300.935L411.547 301.025C408.668 303.569 361.691 296.165 347.013 293.525C351.025 288.885 358.551 246.732 351.513 244.025C345.013 241.525 346.512 241.224 328.513 249.025C310.733 253.025 309.513 241.025 307.062 237.023C307.042 235.916 306.116 226.014 306.062 223.025C305.994 219.289 310.168 201.026 319.513 200.025C328.858 199.025 337.528 205.229 340.468 206.006C343.408 206.783 345.316 208.357 350.513 204.525C355.71 200.694 355.013 180.8 355.013 172.774C355.013 166.025 349.866 154.024 349.013 150.025C354.45 148.681 373.807 145.753 391.513 144.025C412.013 142.025 418.614 146.38 416.513 152.525C415.499 155.49 411.124 166.106 409.513 174.025C407.901 181.944 416.18 187.737 432.013 189.525C464.013 189.525 464.596 175.592 464.513 171.025C464.446 167.372 462.513 167.137 459.013 160.025C458 157.968 455.997 147.637 462.513 145.525C470.658 142.886 488.548 143.102 496.761 144.198Z" stroke="#525252" stroke-width="5"/>
<path id="puzzle-9" d="M517.205 170.385C518.443 164.611 521.372 154.552 521.205 149.885L554.705 157.885C566.205 159.052 588.005 159.685 589.205 152.885C590.705 144.385 582.834 135.352 582.205 129.385C581.205 119.885 595.3 112.975 600.705 111.385C609.205 108.885 627.205 112.385 628.705 114.885C630.205 117.385 641.205 123.385 632.705 136.885C623.531 151.457 627.901 151.632 631.205 154.385C634.205 156.885 646.205 157.885 655.205 156.885C663.952 155.914 686.205 151.552 696.205 149.385C699.039 153.719 704.405 169.785 703.205 191.385C701.705 218.385 679.705 202.385 671.205 200.385C654.205 198.385 654.205 227.885 654.205 231.885C654.205 235.885 659.205 256.385 676.705 248.385C694.205 240.385 698.205 242.885 701.205 245.385C704.205 247.885 700.705 281.885 697.205 294.385C691.705 290.885 642.205 285.885 635.705 290.385C629.205 294.885 630.205 297.885 639.205 313.385C637.205 329.385 624.705 333.385 618.705 333.385H610.205C605.705 333.385 582.705 328.885 581.705 320.885C580.705 312.885 587.205 307.385 588.205 304.885C589.205 302.385 593.546 295.885 589.046 291.385C584.546 286.885 555.546 287.385 546.546 289.885C539.346 291.885 526.539 293.219 521.705 293.885C520.205 289.219 517.305 275.085 517.705 259.885C518.205 240.885 522.705 241.885 526.205 240.885C529.705 239.885 540.126 246.885 549.626 248.385C559.126 249.885 563.516 238.385 566.016 224.885C564.016 197.385 550.016 198.385 544.516 198.385C540.116 198.385 532.872 202.719 529.705 204.885C527.205 205.719 520.605 205.985 518.205 200.385C515.205 193.385 515.705 177.385 517.205 170.385Z" stroke="#525252" stroke-width="5"/>
<path id="puzzle-10" d="M867.732 151.249L867.611 296.252L859.805 297.776C837.018 302.351 844.956 301.429 819.642 301.582C802.247 301.687 797.602 295.01 801.073 290.155L808.964 272.107C807.925 265.78 799.36 255.065 777.37 256.798C749.883 258.965 753.373 272.911 756.998 277.922C759.519 281.407 760.543 285.401 760.561 288.401C759.586 292.407 759.311 296.608 754.128 299.44C748.945 302.271 739.147 302.531 739.147 302.531C724.85 303.11 705.241 298.12 697.338 296.108L697.013 296.025C696.998 293.525 700.013 287.025 700.967 273.069C706.319 248.537 696.758 240.983 689.78 244.525C664.369 259.372 658.272 243.409 655.233 236.927C652.194 230.445 652.597 212.054 661.033 201.502C669.469 190.951 681.548 203.878 690.554 204.823C699.56 205.769 700.999 195.76 700.972 191.26C700.952 188.035 700.083 161.677 697.513 150.025C700.972 149.025 700.633 146.885 727.013 143.525C759.988 139.326 761.713 148.391 762.74 152.885C763.768 157.379 754.81 164.433 754.859 172.433C754.907 180.433 760.968 190.396 780.461 189.278C796.056 188.384 799.773 185.661 802.421 182.645L805.891 177.624L806.361 172.621L805.327 167.127C800.303 163.158 793.631 151.198 803.194 145.14C812.758 139.082 851.702 146.346 867.732 151.249Z" stroke="#525252" stroke-width="5"/>
<path id="puzzle-11" d="M181.845 418.877C181.357 425.784 176.955 440.919 175.013 446.525L169.013 443.886C163.64 443.001 154.215 442.691 150.071 441.638C144.892 440.322 120.596 435.307 112.513 440.025C104.429 444.743 111.937 451.196 114.8 455.525C117.513 468.044 117.112 472.599 114.8 474.749C112.487 476.899 109.008 482.499 87.6924 482.846C66.3767 483.193 62.3754 475.403 61.2267 474.535C60.9422 474.32 57.7876 470.203 57.7963 468.044C57.8049 465.885 57.8186 462.43 58.9776 460.707C60.1366 458.985 64.7657 453.821 65.3504 451.664C65.935 449.507 66.5283 445.191 64.2293 443.886C61.9302 442.582 59.0534 441.707 56.7492 441.697L49.2605 441.668L23.9143 441.566L3.15917 445.802L3.15919 294.472C8.53108 295.645 30.4881 300.621 36.0127 302.025C42.9184 303.78 63.8922 303.03 68.5127 300.025C73.1332 297.021 70.603 290.176 70.615 287.154C70.6271 284.131 69.9552 282.494 66.5127 279.025C63.0702 275.557 62.0363 271.573 62.0432 269.846C62.0501 268.118 64.8408 262.953 70.6151 259.521C76.3894 256.089 96.4304 254.942 103.513 257.025C120.513 262.025 116.334 277.355 114.013 280.525C109.16 287.154 109.75 285.073 109.16 288.525C108.57 291.978 105.298 294.765 111.874 298.211C114.038 299.346 124.539 300.421 132.027 300.451C138.018 300.475 163.327 295.728 173.125 294.472C175.962 305.135 181.747 327.931 182.185 333.806C182.732 341.149 180.398 347.096 177.513 348.38C174.627 349.664 170.393 351.037 167.513 351.025C164.632 351.014 157.927 349.687 155.052 348.38C152.177 347.073 142.523 345.865 136.513 353.525C132.46 358.691 132.039 366.503 132.027 369.525C132.015 372.548 132.011 381.196 134.874 385.525C137.738 389.855 135.578 391.891 146.513 394.525C157.447 397.16 165.827 381.716 175.013 389.525C180.683 394.346 182.456 410.243 181.845 418.877Z" stroke="#525252" stroke-width="5"/>
<path id="puzzle-12" d="M202.212 448.592C195.429 447.749 181.535 449.398 175.513 446.952L178.818 434.025L181.513 421.472C182.617 411.889 182.537 394.396 175.513 390.526C162.256 383.223 158.244 397.237 151.278 397.949C140.188 399.083 134.495 388.461 132.513 384.025C129.396 377.05 132.657 350.194 135.548 348.869C138.438 347.544 145.941 337.122 160.027 346.493C175.576 356.838 176.769 345.493 177.01 344.49C178.937 336.473 180.192 330.912 178.818 323.473C177.483 316.244 175.274 302.257 172.513 294.025C177.517 291.535 201.219 287.219 226.513 287.525C258.13 287.908 236.923 311.564 234.777 318.684C232.823 332.858 260.334 332.653 265.013 332.525C269.692 332.398 295.952 327.847 286.197 313.577C276.496 299.385 284.546 292.143 287.444 289.536L287.491 289.494C290.348 286.924 335.013 289.494 347.904 294.025C343.934 298.702 342.838 348.383 349.901 351.025C356.423 353.466 353.585 354.491 371.513 346.525C389.256 342.363 388.569 350.061 391.057 354.041C391.087 355.147 392.431 369.037 392.513 372.025C392.615 375.761 388.348 395.44 379.013 396.525C369.677 397.611 362.96 391.776 360.013 391.025C357.066 390.275 355.063 387.146 349.901 391.025C344.739 394.904 343.62 410.699 343.694 418.724C343.755 425.473 347.623 439.035 348.513 443.025C343.088 444.42 325.147 445.916 307.457 447.805C286.977 449.992 277.468 445.189 279.513 439.025C280.499 436.052 286.114 427.753 287.653 419.819C289.192 411.886 280.861 406.169 265.013 404.525C233.014 404.817 234.089 416.906 234.214 421.472C234.314 425.124 236.25 425.342 239.814 432.421C240.846 434.47 242.943 444.781 236.447 446.952C228.326 449.666 210.434 449.613 202.212 448.592Z" stroke="#525252" stroke-width="5"/>
<path id="puzzle-13" d="M343.013 315.525C344.248 309.721 346.55 299.135 346.384 294.444L383.013 299.47C394.49 300.642 414.315 303.36 415.513 296.525C417.01 287.982 408.64 280.34 408.013 274.342C407.015 264.793 421.082 257.848 426.477 256.25C434.96 253.737 455.171 257.255 456.668 259.768C458.165 262.281 469.144 268.311 460.661 281.88C451.504 296.526 459.215 296.702 462.513 299.47C465.507 301.983 474.134 302.988 483.117 301.983C491.846 301.006 514.056 296.622 524.037 294.444C526.865 298.8 532.221 314.949 531.023 336.659C529.526 363.797 507.569 347.715 499.086 345.705C482.119 343.695 482.119 373.346 482.119 377.366C482.119 381.387 487.109 401.992 504.575 393.951C522.041 385.91 525.019 391.438 528.013 393.951C531.007 396.463 526.506 431.461 523.013 444.025C517.523 440.507 467 435.502 460.513 440.025C454.025 444.548 454.672 448.446 463.655 464.025C461.659 480.107 453.513 480.025 447.013 481.589C440.513 482.025 440.05 481.589 436.457 481.589C431.966 481.589 409.011 477.066 408.013 469.025C407.015 460.984 415.249 453.252 416.247 450.74C417.245 448.227 417.504 444.709 413.013 440.186C408.521 435.663 381.625 436.013 372.643 438.525C365.457 440.536 351.829 442.029 347.005 442.699C345.508 438.009 342.613 423.803 343.013 408.525C343.509 389.535 350.793 387.44 354.309 386.429L354.368 386.412C357.861 385.407 368.261 392.443 377.743 393.951C387.224 395.458 391.606 383.899 394.101 370.33C392.105 342.69 378.132 347.525 372.643 347.525C368.252 347.525 361.022 351.881 357.861 354.059C355.366 354.896 348.779 351.334 346.384 345.705C343.389 338.669 340.996 325.002 343.013 315.525Z" stroke="#525252" stroke-width="5"/>
<path id="puzzle-14" d="M672.585 291.025C679.315 292.013 690.706 293.025 697.513 294.525L690.706 324.308C689.485 334.344 686.575 351.691 694.496 352.629C704.398 353.802 713.14 346.377 720.071 345.736C731.106 344.715 739.308 356.885 741.22 361.568C744.227 368.934 740.396 386.63 737.506 387.976C734.617 389.322 727.77 398.999 711.972 391.806C694.92 384.043 694.807 390.776 691.644 393.698C688.773 396.351 687.712 403.897 688.981 411.721C690.214 419.325 694.875 434.348 697.513 443.025C692.507 445.562 671.644 451.231 646.513 450.525C615.099 449.643 635.221 435.025 637.513 419.021C639.638 404.18 605.268 403.205 601.513 404.025C595.268 405.39 573.328 413.406 582.836 428.525C592.345 443.644 585.708 445.873 582.836 448.525C579.965 451.178 537.089 447.378 522.513 444.525C526.518 439.679 534.322 399.743 529.013 394.152C523.703 388.56 519.93 388.441 502.012 396.525C483.384 395.035 484.398 388.174 482.512 382.525C480.509 376.525 482.565 370.445 482.512 366.525C482.459 362.605 486.222 346.733 495.512 345.736C504.803 344.739 510.094 351.797 513.012 352.629L513.038 352.636C515.963 353.47 521.348 355.005 526.512 351.025C531.692 347.034 532.724 325.233 529.711 317.433C527.3 311.192 525.411 299.32 524.579 295.12C529.988 293.74 547.833 288.416 565.513 288.525C587.612 288.662 586.341 289.307 591.013 294.525C593.189 296.957 582.645 310.226 581.013 318.525C579.38 326.825 594.905 333.129 610.632 335.095C642.586 332.92 638.651 318.317 638.587 313.525C638.535 309.692 633.358 301.525 631.513 297.525C630.514 295.361 634.029 293.204 640.513 291.025C648.617 288.302 661.598 289.414 672.585 291.025Z" stroke="#525252" stroke-width="5"/>
<path id="puzzle-15" d="M689.891 324.025C690.232 317.109 695.69 301.119 697.513 295.472L703.008 297.501C708.399 298.272 714.348 299.399 718.513 300.363C723.719 301.568 747.032 303.915 755.013 299.025C762.994 294.136 761.513 286.025 759.013 282.525C753.513 274.825 753.797 271.957 756.513 266.525C757.925 263.701 758.709 257.827 780.013 257.025C801.316 256.224 805.346 265.682 806.513 266.525C807.68 267.369 808.475 270.367 808.513 272.525C808.55 274.684 804.973 281.097 804.205 283.025C802.013 288.525 800.889 291.91 800.35 294.078C799.812 296.247 802.186 298.27 804.513 299.525C806.839 300.781 812.709 302.065 815.013 302.025C816.856 301.993 831.285 302.055 833.013 302.025L854.013 299.525L867.513 296.025L869.013 444.525C863.617 443.467 842.066 439.311 836.513 438.025C829.571 436.418 807.013 435.47 803.013 439.025C798.513 443.025 799.46 447.503 799.513 450.525C799.565 453.548 802.497 458.631 806.013 462.025C808.004 463.948 807.619 472.198 806.513 473.525C804.013 476.525 803.226 478.867 797.526 482.421C791.826 485.976 775.138 485.957 768.013 484.025C750.91 479.389 755.954 462.872 758.013 459.525C762.013 453.025 760.265 455.249 761.933 451.48C763.35 448.278 765.914 445.119 760.513 440.025C757.513 437.196 749.001 435.025 741.513 435.025C734.961 435.025 708.282 441.06 698.513 442.525C694.013 432.525 689.269 413.91 688.707 408.045C688.003 400.715 690.209 391.862 693.067 390.517C695.924 389.171 700.128 387.708 703.008 387.658C705.888 387.608 711.61 391.8 714.513 393.046C717.415 394.291 727.102 397.824 732.947 390.037C736.889 384.786 741.331 377.447 741.278 374.424L741.277 374.349C741.223 371.211 741.021 359.561 738.09 355.328C735.135 351.06 734.063 348.979 723.075 346.578C712.086 344.178 702.417 359.797 693.067 352.185C687.295 347.487 689.465 332.671 689.891 324.025Z" stroke="#525252" stroke-width="5"/>
<path id="puzzle-16" d="M3.84811 591.543V446.525L19.0127 443.525C42.0127 441.216 19.0127 443.525 46.5127 441.216C63.8735 439.758 68.9478 448.049 65.4424 453.025L57.9644 467.471C58.9659 473.992 67.479 485.078 89.5127 483.431C117.055 481.372 118.013 472.525 117.021 464.025C116.513 459.667 113.814 453.507 112.014 450.997C107.013 444.025 108.503 442.379 115.013 439.025C120.304 436.299 137.513 439.525 137.513 439.525C152.513 441.525 167.334 443.466 175.013 445.525C175.013 448.099 176.012 453.151 171.605 467.154C166.097 492.381 175.611 502.677 182.622 499.074C208.161 483.946 214.17 500.42 217.175 507.113C220.179 513.805 219.679 530.279 211.166 541.091C202.653 551.902 190.634 538.517 181.62 537.487C172.607 536.457 171.104 546.754 171.104 551.387C171.104 554.708 172.607 578.501 175.11 590.513C171.104 593.026 171.505 593.396 145.064 596.691C112.014 600.81 110.011 595.147 109.009 590.513C108.008 585.88 117.021 578.673 117.021 570.435C117.021 562.198 111.012 551.902 91.4823 552.932C75.8584 553.755 72.1193 556.535 69.4486 559.624L65.9432 564.772L65.4424 569.921L66.444 575.584C71.4516 579.702 78.0617 592.058 68.447 598.236C58.8323 604.414 19.8726 596.691 3.84811 591.543Z" stroke="#525252" stroke-width="5"/>
<path id="puzzle-17" d="M169.129 476.525C170.364 470.721 175.179 451.356 175.013 446.665L210.513 449.61C222.513 449.61 235.013 453.025 238.013 444.581C240.916 436.408 232.385 429.523 231.758 423.525C230.76 413.977 245.42 404.638 251.013 404.025C259.303 403.117 277.513 406.025 281.204 408.5C283.634 410.128 292.89 418.451 284.406 432.02C275.249 446.666 282.129 444.951 285.909 447.013C290.515 449.525 297.53 449.53 306.513 448.525C315.242 447.549 337.802 445.762 347.782 443.584C350.61 447.94 355.966 465.089 354.769 486.799C353.272 513.937 331.315 497.855 322.831 495.845C305.864 493.835 305.864 523.486 305.864 527.506C305.864 531.527 310.854 552.132 328.32 544.091C345.786 536.05 348.764 541.578 351.758 544.091C354.752 546.603 350.251 581.602 346.758 594.165C341.269 590.648 290.746 585.642 284.258 590.165C277.771 594.688 278.418 598.586 287.4 614.165C285.404 630.247 277.258 630.165 270.758 631.729C264.258 632.165 263.796 631.729 260.203 631.729C255.711 631.729 232.756 627.206 231.758 619.165C230.76 611.125 238.995 603.393 239.993 600.88C240.991 598.367 241.249 594.849 236.758 590.326C232.267 585.803 205.371 586.153 196.388 588.665C189.202 590.676 180.837 587.995 176.013 588.665C174.516 583.975 170.351 570.303 170.75 555.025C171.249 535.928 177.02 538.531 180.513 537.525C184.006 536.52 192.531 544.518 202.013 546.025C211.494 547.533 217.018 536.594 219.513 523.025C217.517 495.385 212.513 498.525 204.513 492.525C201 489.891 196.173 491.848 193.013 494.025C190.518 494.863 176.408 504.154 174.013 498.525C171.019 491.49 167.113 486.002 169.129 476.525Z" stroke="#525252" stroke-width="5"/>
<path id="puzzle-18" d="M498.013 440.525C504.788 441.43 516.513 442.025 522.513 444.525L519.513 459.525L517.513 471.025C516.322 480.598 516.524 496.283 523.513 500.216C536.702 507.64 538.448 494.549 545.513 491.025C555.489 486.05 567.148 501.677 568.148 509.677C569.096 517.259 564.415 540.4 561.513 541.699C558.61 542.997 549.378 551.199 535.378 541.699C519.924 531.212 519.763 545.025 519.513 546.025C517.513 554.025 519.013 556.025 519.513 563.525C520.002 570.86 520.327 582.769 523.013 591.025C517.985 593.47 496.681 597.959 471.391 597.422C439.778 596.751 458.166 575.925 460.378 568.825C462.461 554.669 432.558 552.125 427.878 552.21C423.198 552.296 399.288 559.104 408.912 573.463C418.537 587.821 414.392 594.878 411.513 597.422C408.633 599.966 363.555 596.165 348.878 593.525C352.89 588.885 355.916 541.753 348.878 539.047C342.378 536.547 345.377 537.245 327.378 545.046C309.598 549.046 310.464 537.527 308.013 533.525C306.013 527.025 306.013 520.611 306.013 518.025C306.013 508.635 310.168 497.025 319.513 496.025C328.858 495.024 339.573 501.748 342.513 502.525C345.453 503.302 346.316 503.357 351.513 499.525C356.71 495.693 355.648 473.97 354.513 466.025C353.513 459.025 348.866 447.524 348.013 443.525C353.45 442.181 366.316 439.362 384.013 438.025C403.878 436.525 416.513 437.025 416.513 449.025C416.513 452.158 406.552 459.501 407.513 467.525C408.648 477.004 421.68 481.06 437.513 482.848C469.513 482.848 464.648 463.827 462.648 460.327C460.835 457.155 461.76 460.137 458.26 453.025C457.248 450.968 456.132 442.637 462.648 440.525C470.793 437.886 489.8 439.429 498.013 440.525Z" stroke="#525252" stroke-width="5"/>
<path id="puzzle-19" d="M518.205 465.385C519.443 459.611 522.372 449.552 522.205 444.885L557.513 449.385C569.013 450.552 585.813 451.685 587.013 444.885C588.513 436.385 581.141 427.492 580.513 421.525C579.513 412.025 594.607 405.615 600.013 404.025C608.513 401.525 622.013 405.525 626.513 407.025C629.695 408.086 645.513 409.025 633.705 431.885C625.804 447.184 629.485 448.557 633.705 449.385C639.513 450.525 648.013 452.025 657.013 451.025C665.759 450.054 686.513 447.052 696.513 444.885C699.346 449.219 703.502 462.925 702.302 484.525C700.802 511.525 678.11 495.385 669.61 493.385C652.61 491.385 652.513 522.885 652.513 526.885C652.513 530.885 659.513 549.525 677.013 541.525C694.513 533.525 699.205 537.885 702.205 540.385C705.205 542.885 699.013 582.025 695.513 594.525C690.013 591.025 636.365 585.496 632.013 592.025C627.013 599.525 632.013 603.525 636.513 613.025C639.013 621.025 635.513 625.025 624.013 631.525C616.513 633.525 610.113 634.025 606.513 634.025C602.013 634.025 579.513 628.025 578.513 620.025C577.513 612.025 588.205 602.385 589.205 599.885C590.205 597.385 590.013 594.385 585.513 589.885C581.013 585.385 556.513 585.385 548.013 587.025C537.924 588.972 528.846 591.359 524.013 592.025C522.513 587.359 518.305 570.085 518.705 554.885C519.205 535.885 523.705 536.885 527.205 535.885C530.705 534.885 541.126 541.885 550.626 543.385C560.126 544.885 564.516 533.385 567.016 519.885C565.016 492.385 551.016 493.385 545.516 493.385C541.116 493.385 534.679 499.859 531.513 502.025C529.013 502.859 521.605 500.985 519.205 495.385C516.205 488.385 516.705 472.385 518.205 465.385Z" stroke="#525252" stroke-width="5"/>
<path id="puzzle-20" d="M869.313 443.708L869.214 593.107L861.378 594.675C838.501 599.385 846.47 598.437 821.057 598.591C803.593 598.696 798.929 591.816 802.412 586.814L810.331 568.221C809.288 561.702 800.687 550.66 778.611 552.442C751.015 554.67 754.521 569.04 758.161 574.203C760.693 577.794 761.722 581.909 761.741 585C760.762 589.127 760.487 593.457 755.284 596.373C750.081 599.289 740.244 599.555 740.244 599.555C725.69 600.158 705.652 595.125 697.943 593.111C697.927 590.535 700.953 583.573 701.909 569.195C707.278 543.919 697.679 536.135 690.673 539.784C665.164 555.076 658.285 538.533 655.233 531.854C652.18 525.175 649.977 507.724 658.445 496.854C666.913 485.984 680.326 497.792 689.367 498.767C698.409 499.743 703.183 490.378 703.155 485.742C703.135 482.419 700.529 455.717 697.946 443.712C701.419 442.682 705.051 438.81 731.535 435.352C764.639 431.03 763.632 440.721 764.664 445.351C765.696 449.982 758.114 460.109 758.164 468.351C758.214 476.594 762.133 484.025 781.703 482.876C797.359 481.957 801.091 479.153 803.749 476.046L807.231 470.873L807.702 465.718L806.664 460.058C801.619 455.967 794.919 443.644 804.519 437.403C814.119 431.163 853.219 438.654 869.313 443.708Z" stroke="#525252" stroke-width="5"/>
<path id="puzzle-21" d="M180.513 713.025C180.024 719.933 178.559 732.18 176.616 737.786L170.616 737.786C165.243 736.901 156.156 734.978 152.013 733.925C146.833 732.609 122.2 729.207 114.116 733.925C106.033 738.643 113.54 749.696 116.403 754.025C119.116 766.544 118.716 767.375 116.403 769.525C114.09 771.675 110.04 782.539 89.296 777.622C72.0127 773.525 74.5127 775.025 69.5127 771.525C66.7568 769.596 62.8217 765.685 62.8303 763.525C62.8389 761.366 61.6713 757.748 62.8303 756.025C63.9893 754.303 70.0491 743.86 70.6338 741.703C71.2185 739.546 71.8117 735.23 69.5127 733.925C67.2137 732.621 58.8169 728.535 56.5127 728.525C54.6693 728.518 34.7409 729.532 33.0127 729.525L22.5127 731.025L4.76276 736.116L4.76278 588.525C10.1347 589.698 31.4881 598.121 37.0127 599.525C49.5127 602.702 64.8922 600.03 69.5127 597.025C74.1332 594.021 74.2035 586.031 72.5127 583.525C70.8068 580.997 71.4553 579.994 68.0127 576.525C64.5702 573.057 65.8323 566.613 66.5127 565.025C68.0127 561.525 69.0127 558.048 76.0127 556.025C85.0127 553.425 95.034 551.842 102.116 553.925C119.116 558.925 117.398 570.923 115.616 574.425C112.513 580.525 111.762 581.626 110.013 584.525C108.204 587.525 107.437 593.579 114.013 597.025C116.177 598.16 128.024 597.996 135.513 598.025C141.504 598.049 165.013 594.025 174.513 591.025C177.351 601.689 181.075 625.151 181.513 631.025C182.06 638.369 179.502 647.741 176.616 649.025C173.731 650.309 168.893 650.537 166.013 650.525C163.132 650.514 157.888 645.832 155.013 644.525C152.138 643.218 144.127 639.764 138.116 647.425C134.063 652.591 130.525 664.503 130.513 667.525C130.501 670.548 132.65 682.696 135.513 687.025C138.376 691.355 137.578 691.391 148.513 694.025C159.447 696.66 167.43 681.216 176.616 689.025C182.287 693.846 181.123 704.391 180.513 713.025Z" stroke="#525252" stroke-width="5"/>
<path id="puzzle-22" d="M203.013 744.588C196.229 743.745 182.035 740.971 176.013 738.525L178.908 731.661L180.013 721.525C178.423 712.943 184.513 691.743 178.013 688.162C164.756 680.858 159.389 692.813 152.423 693.525C141.333 694.659 131.982 686.596 131.013 681.661C129.513 674.025 133.489 649.329 136.38 648.005C139.27 646.68 143.758 637.653 157.845 647.025C173.393 657.37 179.272 648.027 179.513 647.025C181.44 639.007 181.013 634.089 181.013 626.525C181.013 619.442 177.099 600.525 175.513 588.525C190.013 588.525 206.513 586.025 231.013 588.525C251.024 590.567 233.159 607.906 231.013 615.025C229.059 629.2 260.423 633.653 265.102 633.525C269.781 633.397 296.042 625.482 286.287 611.212C276.532 596.942 283.431 592.595 286.287 590.025C289.144 587.455 335.622 591.494 348.513 596.025C344.543 600.702 342.928 646.018 349.991 648.661C356.513 651.101 352.085 650.991 370.013 643.025C387.756 638.863 388.659 647.696 391.146 651.676C391.176 652.783 394.931 669.037 395.013 672.025C395.115 675.761 388.438 693.075 379.102 694.161C369.767 695.247 363.049 689.411 360.102 688.661C357.155 687.911 355.152 684.782 349.991 688.661C344.829 692.54 343.71 708.335 343.783 716.36C343.845 723.108 347.623 732.535 348.513 736.525C343.088 737.92 325.237 743.551 307.547 745.44C287.066 747.627 276.468 740.689 278.513 734.525C279.499 731.552 286.614 723.253 288.153 715.319C289.692 707.386 278.861 701.169 263.013 699.525C231.014 699.817 232.888 712.89 233.013 717.455C233.112 721.107 236.339 722.977 239.904 730.057C240.936 732.105 243.744 740.777 237.248 742.948C229.127 745.662 211.235 745.609 203.013 744.588Z" stroke="#525252" stroke-width="5"/>
<path id="puzzle-23" d="M341.758 610.665C342.993 604.861 348.679 599.3 348.513 594.61L384.513 599.525C395.99 600.698 414.815 601.445 416.013 594.61C417.51 586.066 407.385 575.479 406.758 569.482C405.76 559.933 417.118 554.623 422.513 553.025C430.996 550.513 447.513 554.025 451.013 556.525C453.393 558.225 465.996 563.456 457.513 577.025C448.356 591.671 455.611 591.842 458.909 594.61C461.903 597.123 470.53 598.128 479.513 597.123C488.242 596.146 512.802 591.762 522.782 589.584C525.61 593.94 529.648 615.269 528.45 636.979C526.953 664.117 504.996 648.036 496.513 646.025C479.546 644.015 480.864 668.486 480.864 672.506C480.864 676.527 485.855 697.131 503.32 689.091C520.786 681.05 523.764 686.578 526.758 689.091C529.752 691.603 525.006 722.762 521.513 735.326C516.023 731.808 464.246 727.943 457.758 732.466C451.271 736.989 457.758 738.525 462.4 759.165C460.404 775.247 452.258 775.165 445.758 776.729C439.258 777.165 438.796 776.729 435.203 776.729C430.711 776.729 407.011 769.066 406.013 761.025C405.015 752.984 412.515 747.538 413.513 745.025C414.511 742.513 416.004 735.048 411.513 730.525C407.021 726.002 383.181 727.81 374.013 729.525C365.137 731.186 353.837 734.656 349.013 735.326C347.516 730.635 344.73 721.803 345.129 706.525C345.628 687.428 350.52 688.53 354.013 687.525C357.506 686.52 367.031 694.018 376.513 695.525C385.994 697.033 398.649 679.525 394.513 660.025C391.013 643.525 380.502 642.025 375.013 642.025C370.621 642.025 359.173 647.848 356.013 650.025C349.513 651.025 346.93 647.3 344.535 641.672C341.541 634.636 339.742 620.142 341.758 610.665Z" stroke="#525252" stroke-width="5"/>
<path id="puzzle-24" d="M695.076 594.025C689.651 594.249 676.743 590.55 670.013 589.525C659.025 587.852 645.616 586.71 637.513 589.525C631.03 591.777 626.013 593.025 631.513 602.525C634.071 605.346 629.141 599.809 633.706 605.406C639.513 612.525 641.466 632.29 609.513 634.525C593.784 632.484 577.384 626.114 579.013 617.525C580.641 608.937 589.718 597.165 588.513 594.025C587.307 590.886 586.112 585.677 564.013 585.525C546.333 585.404 529.921 589.6 524.513 591.025C525.347 595.372 526.015 600.37 528.429 606.83C531.446 614.904 530.691 646.398 525.513 650.525C520.335 654.653 521.013 654.025 517.513 654.025C514.469 654.025 501.303 645.382 492.013 646.409C482.723 647.437 480.958 662.468 481.013 666.525C481.057 669.771 481.013 675.025 482.513 680.025C487.013 687.025 489.513 692.025 497.513 691.525C515.427 683.168 521.201 683.236 526.513 689.025C531.825 694.815 524.729 733.335 520.727 738.348C535.305 741.307 543.013 747.742 581.609 745.52C585.573 745.292 591.125 738.177 581.609 722.525C572.093 706.874 600.862 698.725 605.513 698.662C613.857 698.55 638.475 702.875 636.357 718.233C627.513 732.025 616.661 743.093 648.076 744.02C673.207 744.762 690.071 737.148 695.076 734.525C692.434 725.544 688.981 712.356 687.744 704.486C686.829 698.662 692.205 688.769 695.076 686.025C698.237 683.003 701.012 684.525 717.513 688.025C734.603 691.651 736.615 676.207 737.013 673.025C738.013 665.025 738.523 658.649 735.513 651.025C733.598 646.177 730.547 640.474 719.513 641.525C712.582 642.185 706.915 650.244 697.013 649.025C689.091 648.05 686.528 623.912 687.744 613.525L695.076 594.025Z" stroke="#525252" stroke-width="5"/>
<path id="puzzle-25" d="M687.231 617.986C687.572 611.07 692.866 598.355 694.688 592.709L699.527 592.709C704.917 593.479 714.347 593.588 718.512 594.553C723.718 595.758 748.115 600.253 756.096 595.363C764.077 590.474 761.968 582.293 759.013 578.025C757.013 573.025 752.013 569.525 757.013 560.525C758.546 557.765 767.013 552.525 780.013 552.525C801.331 552.525 805.124 559.392 806.013 560.525C807.391 562.284 809.975 565.367 810.013 567.525C810.05 569.684 808.135 573.778 807.013 575.525C805.891 577.272 804.526 581.83 803.013 584.025C801.744 585.865 800.654 590.258 802.013 592.525C803.981 595.81 805.348 596.177 808.366 596.986L808.513 597.025C815.013 598.77 814.513 598.525 822.513 599.025L850.513 597.026L868.499 594.025L868.499 737.025C863.103 735.967 841.045 731.461 835.491 730.175C828.55 728.568 806.329 729.945 803.074 734.392C801.513 736.526 799.513 737.526 800.513 740.608C801.446 743.483 801.013 745.026 803.849 749.026C806.684 753.026 808.483 757.298 808.513 759.026C808.543 760.753 805.713 766.971 800.013 770.526C794.313 774.08 775.138 774.957 768.013 773.026C750.91 768.389 750.76 754.745 753.013 751.526C757.723 744.795 757.517 745.214 759.761 742.526C761.013 741.026 760.031 738.526 759.761 737.131C758.001 728.026 746.501 729.396 739.013 729.526C733.023 729.63 704.457 733.857 694.688 735.322C691.624 724.722 689.27 708.91 688.707 703.046C688.004 695.715 690.21 689.72 693.067 688.375C695.924 687.029 700.128 685.567 703.008 685.517C705.888 685.467 712.62 686.65 715.523 687.895C718.425 689.141 728.102 690.143 733.948 682.356C737.89 677.104 738.143 669.286 738.091 666.264C738.038 663.241 737.858 654.596 734.903 650.328C731.948 646.06 734.063 643.979 723.075 641.578C712.087 639.178 704.039 654.797 694.688 647.185C688.916 642.487 686.805 626.632 687.231 617.986Z" stroke="#525252" stroke-width="5"/>
<path id="puzzle-26" d="M4.01271 879.025V736.025C12.1794 734.692 29.6127 731.625 34.0127 730.025C39.5127 728.025 65.0127 727.525 69.0127 734.025C72.2127 739.225 66.0127 749.192 62.5127 753.525C59.6794 759.525 60.2127 772.425 85.0127 776.025C116.013 780.525 118.513 768.025 118.513 760.025C118.513 752.025 106.513 739.025 110.013 736.025C113.513 733.025 120.013 731.525 132.513 730.025C142.513 728.825 166.846 735.525 177.013 739.025C174.679 744.359 169.813 758.325 169.013 771.525C168.013 788.025 174.013 793.025 181.013 793.025C188.013 793.025 197.513 781.525 204.513 787.525C226.513 808.025 214.513 830.025 204.513 836.525C194.513 843.025 182.513 825.525 174.013 831.525C167.213 836.325 171.179 865.192 174.013 879.025H4.01271Z" stroke="#525252" stroke-width="5"/>
<path id="puzzle-27" d="M174.013 878.138L349.013 878.138L350.509 873.525C351.174 870.025 350.792 869.326 351.59 866.526C352.388 863.725 354.181 859.026 354.513 856.026C354.845 853.192 355.914 848.725 355.513 845.525C355.111 842.326 357.013 846.525 354.513 839.025C352.013 831.525 348.013 828.526 345.115 828.526C342.074 828.526 347.44 826.681 336.513 830.526C332.181 833.361 330.013 836.524 326.513 836.026C323.013 835.527 317.015 836.539 312.013 832.542C308.011 829.344 305.513 829.026 305.513 815.526C305.513 809.026 305.416 802.628 309.013 797.026C313.509 790.023 320.513 786.528 324.013 786.526C333.086 786.526 336.461 790.195 341.583 793.026C347.013 796.026 351.016 794.028 355.013 788.026C358.21 783.224 351.709 751.379 349.034 737.547C340.202 739.552 318.412 744.018 304.013 746.026C286.014 748.536 278.513 741.526 278.513 734.605C285.505 720.101 293.513 717.026 284.013 706.526C280.188 702.298 264.013 699.526 252.013 699.526C240.502 699.526 229.008 712.029 234.513 720.526C240.018 729.023 246.011 736.522 240.013 740.525C234.015 744.529 224.513 746.518 211.513 746.026C201.112 745.631 182.847 740.188 176.013 739.025L167.513 769.642C167.85 777.475 171.513 799.177 185.47 791.025C197.466 784.019 205.01 786.527 208.513 791.025C212.015 795.523 215.513 798.525 217.58 813.616C219.49 827.566 204.513 838.024 201.513 838.025C198.513 838.027 189.513 834.641 180.513 830.526C174.035 827.563 171.513 830.526 170.591 834.641C168.759 842.823 170.588 850.025 170.591 856.025C170.594 862.025 172.177 873.306 174.013 878.138Z" stroke="#525252" stroke-width="5"/>
<path id="puzzle-28" d="M495.013 732.025C503.015 732.361 518.003 734.456 524.513 736.025C523.541 740.539 520.933 750.671 519.755 754.156C518.282 758.512 514.97 783.799 520.513 790.525C526.055 797.252 532.028 792.471 537.012 790.025C550.513 784.525 554.512 789.237 557.512 791.525C562.075 795.005 563.013 799.525 564.513 808.025C567.619 825.629 563.779 829.157 563.013 830.317C560.304 834.419 558.512 837.01 556.013 837.026C553.513 837.041 549.019 838.479 547.013 837.526C545.006 836.572 538.97 833.993 536.467 833.526C533.964 833.058 527.195 829.214 525.013 830.317C523.207 831.229 522.513 829.526 520.747 832.387C519.935 833.702 517.013 838.026 517.513 842.026L519.013 864.526L523.207 878.026L349.513 878.025C350.818 873.51 353.442 862.672 355.013 858.025C356.976 852.218 356.037 837.867 352.513 834.025C348.988 830.184 348.013 828.003 344.513 828.025C341.013 828.047 339.494 829.103 335.513 832.025C331.531 834.948 324.013 835.513 322.013 835.525C320.013 835.538 306.012 833.446 306.012 824.77C306.012 818.499 307.996 793.157 310.959 787.343C313.923 781.529 322.414 780.027 326.916 780.482C331.419 780.936 338.456 786.688 342.459 787.145C346.462 787.603 349.449 785.653 351.44 784.191C353.431 782.73 353.873 773.551 353.834 767.273C353.802 762.251 350.691 744.594 349.14 736.394C361.458 733.902 387.793 728.81 394.59 728.381C403.087 727.845 415.605 730.664 417.12 733.069C418.635 735.474 417.153 738.381 417.169 740.796C417.184 743.21 413.217 748.548 411.733 750.972C410.248 753.396 410.318 764.503 416.339 767.846C422.36 771.189 431.093 773.004 434.593 772.982C438.093 772.96 444.596 773.402 449.581 770.956C454.565 768.51 458.832 766.613 461.774 757.418C464.716 748.224 449.581 739.025 457.013 734.025C463.088 729.938 485.01 731.605 495.013 732.025Z" stroke="#525252" stroke-width="5"/>
<path id="puzzle-29" d="M523.013 877.525L697.013 878.526L699.03 873.526C699.669 870.146 700.906 861.731 701.684 859.026C702.462 856.32 702.301 853.473 702.611 850.579C702.922 847.845 703.438 841.607 703.013 838.525C702.587 835.444 698.532 834.925 697.013 832.525C695.493 830.125 690.07 829.762 688.513 830.025C685.517 830.532 678.01 836.7 677.513 837.025C673.202 839.792 663.044 841.525 660.528 837.025C658.013 832.525 656.437 835.525 652.513 821.525C651.149 816.662 652.706 810.237 652.513 807.025C651.963 800.925 653.957 798.953 657.513 793.525C661.957 786.741 666.513 787.554 670.013 787.525C674.985 784.111 687.858 798.577 693.342 796.604C698.826 794.631 701.684 789.025 703.013 782.025C704.062 776.498 700.089 748.487 697.314 735.175C688.496 737.175 675.896 742.98 661.513 745.025C643.533 747.582 621.513 742.025 628.013 733.025C634.898 718.991 638.048 713.334 634.513 709.025C630.977 704.716 615.513 698.729 604.01 698.341C592.506 697.953 575.446 711.877 581.013 720.025C586.579 728.174 591.481 741.121 585.513 745.025C579.544 748.93 569.016 746.901 556.013 746.525C545.61 746.225 528.855 740.094 522.013 739.025L516.119 773.274C516.514 780.823 519.457 798.002 529.013 792.525C540.957 785.68 554.477 786.216 558.013 790.525C561.548 794.835 567.402 806.518 566.013 820.025C564.623 833.533 561.917 839.44 551.513 838.025C536.013 835.918 538.024 832.414 531.013 831.025C524.001 829.637 517.56 832.796 517.619 840.025C517.678 847.255 518.453 850.796 518.513 858.025C518.56 863.809 521.141 872.881 523.013 877.525Z" stroke="#525252" stroke-width="5"/>
<path id="puzzle-30" d="M869.909 877.855V734.855C861.742 733.521 844.591 728.855 839.909 728.855C827.013 728.855 805.013 731.025 801.013 737.525C797.813 742.725 803.513 748.021 807.013 752.355C809.846 758.355 813.709 771.255 788.909 774.855C757.909 779.355 751.013 760.355 751.013 752.355C751.013 744.355 762.117 745.525 757.513 734.855C755.687 730.622 754.013 730.355 741.513 728.855C731.513 727.655 708.013 732.855 697.013 734.855C699.346 740.188 703.213 756.325 704.013 769.525C705.013 786.025 701.013 797.025 694.013 797.025C687.013 797.025 669.513 784.525 662.513 790.525C648.513 802.525 652.513 831.025 662.513 837.525C672.513 844.025 691.409 829.355 699.909 835.355C706.709 840.155 702.742 864.021 699.909 877.855H869.909Z" stroke="#525252" stroke-width="5"/>
</g>
</svg>
